<svg width="800" height="800" fill="none" xmlns="http://www.w3.org/2000/svg"><path d="M199.728 44.991C130.793-23.374 12.911 25.095 13 121.768l.316 341.408c.09 96.402 117.5 144.779 186.471 76.831l172.539-169.98c42.945-42.309 43.061-111.159.257-153.608L199.728 44.991z" fill="#007BFF"/><path d="M787.402 364.277c-.268-126.417-154.615-189.339-244.487-99.668L260.954 545.936c-89.622 89.421-25.831 241.66 101.313 241.785l282.559.279c79.167.078 143.34-63.621 143.174-142.117l-.598-281.606z" fill="#F51B5E"/><path d="M574.265 121.92c0 50.68-41.436 91.765-92.551 91.765-51.114 0-92.55-41.085-92.55-91.765s41.436-91.766 92.55-91.766c51.115 0 92.551 41.085 92.551 91.766z" fill="#3D3D3D"/></svg>