<svg width="800" height="800" viewBox="0 0 800 800" fill="none" xmlns="http://www.w3.org/2000/svg">
<path d="M174.246 339H134.998V86.3064H232.958V124.017H174.246V195.56H219.876V233.271H174.246V339ZM200.727 626.233H238.06V659.01C238.748 667.206 237.792 675.469 235.262 683.212C232.731 690.955 228.687 697.987 223.416 703.808C218.147 709.629 211.781 714.096 204.77 716.89C197.761 719.686 190.28 720.741 182.859 719.981C175.35 720.806 167.768 719.828 160.633 717.113C153.499 714.399 146.98 710.012 141.524 704.254C136.068 698.496 131.806 691.502 129.026 683.754C126.247 676.005 125.016 667.685 125.422 659.362V522.971C125.016 514.648 126.247 506.327 129.026 498.578C131.806 490.83 136.068 483.836 141.524 478.078C146.98 472.32 153.499 467.934 160.633 465.22C167.768 462.505 175.35 461.527 182.859 462.352C190.28 461.592 197.761 462.648 204.77 465.443C211.781 468.239 218.147 472.705 223.416 478.526C228.687 484.347 232.731 491.378 235.262 499.12C237.792 506.863 238.748 515.127 238.06 523.323V551.165H200.727V522.971C200.727 510.987 195.941 500.414 182.859 500.414C169.777 500.414 164.989 510.987 164.989 522.971V661.125C164.989 672.755 169.777 683.679 182.859 683.679C195.941 683.679 200.727 672.755 200.727 661.125V626.233ZM289.118 86.3064H249.87V339H289.118V86.3064ZM488.23 232.919V339H448.982V86.3064H488.23V195.56H523.33V86.3064H562.577V339H523.33V232.919H488.23ZM651.602 339H612.674V124.017H577.574V86.3064H687.021V124.017H651.602V339ZM792 13H8V30.9741H792V13ZM426.326 281.201C427.064 289.427 426.144 297.729 423.636 305.516C421.128 313.302 417.092 320.379 411.817 326.24C406.54 332.101 400.156 336.6 393.12 339.415C386.085 342.231 378.572 343.292 371.122 342.524C363.572 343.35 355.948 342.362 348.776 339.63C341.603 336.897 335.049 332.484 329.563 326.693C324.078 320.902 319.791 313.871 316.996 306.08C314.2 298.289 312.962 289.922 313.367 281.553V143.753C313.011 135.412 314.284 127.085 317.101 119.337C319.917 111.589 324.21 104.603 329.69 98.8515C335.169 93.1002 341.706 88.7195 348.856 86.0075C356.005 83.2954 363.599 82.3147 371.122 83.1337C378.544 82.3736 386.027 83.4293 393.036 86.2247C400.046 89.0201 406.412 93.4869 411.682 99.3076C416.952 105.128 420.996 112.159 423.527 119.902C426.058 127.645 427.014 135.908 426.326 144.104V174.414H389.63V143.753C389.63 131.769 384.844 121.197 371.761 121.197C358.678 121.197 353.572 131.769 353.572 143.753V281.553C353.572 293.536 358.678 304.461 371.761 304.461C384.844 304.461 389.63 293.536 389.63 281.553V232.918H370.166V197.674H426.963L426.326 281.201ZM612.991 716.455H573.744V463.762H627.35C635.36 463.259 643.37 464.68 650.834 467.926C658.298 471.171 665.037 476.164 670.587 482.562C676.136 488.958 680.365 496.608 682.981 504.983C685.598 513.358 686.541 522.261 685.745 531.077V548.346C686.535 557.177 685.592 566.092 682.977 574.484C680.363 582.875 676.138 590.545 670.594 596.969C665.051 603.392 658.319 608.418 650.856 611.706C643.392 614.992 635.376 616.462 627.35 616.013H612.991V716.455ZM612.991 578.303H624.797C638.837 578.303 646.815 567.024 646.815 548.346V531.428C646.815 512.749 638.837 501.472 624.797 501.472H612.991V578.303ZM370.486 716.455H330.918L324.855 670.64H290.395L284.332 716.455H247.317L283.055 463.762H334.749L370.486 716.455ZM306.668 529.314L293.265 638.569H319.751L307.306 529.314H306.668ZM424.091 716.809H386.756V463.762H441.001L466.528 625.175L492.056 463.762H546.3V716.809H508.968V646.322C508.968 611.079 511.52 565.967 513.115 530.371L483.44 718.219H451.531L422.176 530.371C422.176 565.614 425.367 608.259 425.367 646.322L424.091 716.809ZM792 392.57H8V410.545H792V392.57ZM792 770.025H8V788H792V770.025Z" fill="black"/>
</svg>
