<svg width="2122" height="800" viewBox="0 0 2122 800" fill="none" xmlns="http://www.w3.org/2000/svg">
<path d="M1923.17 560.669C1962.56 560.539 1988.25 583.796 1991.45 622.913H1948.48C1947.34 608.183 1938.89 600.556 1923.94 600.556C1910.63 600.556 1902.21 608.183 1902.21 620.115C1902.21 632.439 1907.84 638.036 1925.48 643.618L1942.35 648.822C1967.66 656.842 1974.45 660.001 1983.27 670.427C1992.09 680.46 1996.95 695.583 1996.95 711.573C1996.95 750.331 1968.05 777.369 1926.25 777.369C1884.04 777.369 1853.62 749.054 1853.62 709.544V708.398H1895.43C1896.95 728.35 1906.67 737.499 1924.71 737.499C1941.58 737.499 1952.46 727.466 1952.46 711.966C1952.46 698.382 1945.67 693.537 1918.31 686.057C1889.41 678.037 1877.78 671.703 1868.19 657.726C1861.41 648.2 1857.32 634.976 1857.32 621.768C1857.32 585.056 1883.8 560.669 1923.17 560.669ZM1399.96 560.162C1420.81 560.162 1437.3 570.572 1444.21 588.117V564.614H1483.58V773.326H1444.21V750.183C1436.53 767.336 1420.15 777.238 1399.58 777.238C1357.38 777.238 1329.25 734.176 1329.25 670.279C1329.25 602.831 1356.5 560.162 1399.96 560.162ZM1829.32 507.068V773.31H1790.33V748.546C1779.84 769.382 1766.67 777.254 1744.17 777.254C1700.44 777.254 1674.74 736.991 1674.74 667.497C1674.74 599.672 1701.59 560.162 1747.36 560.162C1763.85 560.162 1779.97 568.918 1785.47 580.866V507.051H1829.32V507.068ZM1322.87 560.669V605.008C1292.3 605.008 1279.9 618.969 1279.9 652.898V773.441H1236.18V564.598H1275.94V599.787L1277.09 596.611C1286.3 571.848 1298.83 560.669 1319.66 560.669H1322.87ZM1109.07 507.198C1144.36 507.198 1162.51 512.01 1178.5 525.48C1194.6 538.689 1203.81 558.264 1203.81 577.822C1203.81 600.932 1192.18 618.969 1170.05 630.147C1197.81 639.313 1215.05 664.846 1215.05 696.712C1215.05 725.043 1199.83 752.606 1176.96 764.93C1163.28 772.557 1157.65 773.31 1130.03 773.31H1045.13V507.182L1109.07 507.198ZM1595.57 560.669C1618.09 560.669 1638.54 572.225 1648.64 591.03C1654.64 602.978 1655.41 606.153 1655.41 634.468V773.31H1611.69V634.468C1611.69 610.082 1603.64 600.556 1584.84 600.556C1565.92 600.556 1555.17 612.88 1555.17 634.468V773.31H1511.31V564.614H1551.08V586.578C1560.29 569.442 1575.49 560.669 1595.57 560.669ZM1754.12 600.441C1731.24 600.441 1719.61 623.175 1719.61 667.873C1719.61 714.127 1731.24 737.368 1754.12 737.368C1774.96 737.368 1785.45 720.984 1785.45 687.448V645.533C1785.45 615.925 1774.59 600.441 1754.12 600.441ZM1409.16 600.179C1386.66 600.179 1374.25 624.943 1374.25 668.757C1374.25 713.488 1386.26 737.368 1408.78 737.368C1428.84 737.368 1439.71 720.215 1439.71 687.939V644.501C1439.71 616.939 1428.47 600.179 1409.16 600.179ZM1114.58 658.855H1091.69V730.625H1114.58C1150.76 730.625 1165.98 720.199 1165.98 695.566C1165.98 670.787 1149.11 658.855 1114.58 658.855ZM2035.55 559.262C2054.99 559.262 2070.59 575.514 2070.59 594.451C2070.59 613.879 2054.75 629.64 2035.31 629.64C2015.87 629.64 1999.88 613.764 1999.88 594.451C1999.97 585.06 2003.77 576.085 2010.45 569.491C2017.14 562.896 2026.16 559.218 2035.55 559.262ZM2035.44 566.234C2019.83 566.234 2007.69 578.951 2007.69 594.451C2007.69 610.065 2020.22 622.651 2035.44 622.651C2050.53 622.651 2063.04 610.196 2063.04 594.435C2063.04 579.328 2051.16 566.234 2035.44 566.234ZM1112.16 549.736H1091.7V616.416H1113.43C1140.27 616.416 1154.34 604.86 1154.34 582.88C1154.34 559.769 1141.94 549.736 1112.16 549.736ZM2036.72 577.937V578.051C2042.85 578.051 2048.48 580.605 2048.48 587.069C2048.48 589.737 2047.58 592.912 2043.23 594.827C2045.54 595.842 2047.58 597.364 2047.84 602.324C2048.22 607.905 2048.22 608.543 2048.86 610.196H2041.05C2040.41 609.05 2040.17 603.584 2040.04 602.438C2039.78 600.67 2039.4 597.741 2034.28 597.741H2031.09V610.065H2023.04V577.937H2036.72ZM2035.31 583.387H2031.09V592.552H2034.92C2036.58 592.552 2040.41 592.552 2040.41 587.577C2040.41 583.518 2036.96 583.387 2035.31 583.387ZM1474.89 257.569C1524.63 257.569 1554.81 297.471 1554.81 362.121C1554.68 367.588 1554.68 371.647 1553.91 380.78H1439.09V385.624C1439.09 414.708 1453.54 434.283 1475.28 434.283C1494.2 434.283 1505.46 422.712 1510.19 398.325H1553.14C1548.67 443.416 1516.96 474.17 1475.66 474.17C1425.91 474.17 1395.36 433.907 1395.36 368.095C1395.36 298.601 1425.03 257.569 1474.89 257.569ZM1935.2 257.569C1984.93 257.569 2015.1 297.471 2015.1 362.121C2014.97 367.588 2014.97 371.647 2014.22 380.78H1899.39V385.624C1899.39 414.708 1913.84 434.283 1935.57 434.283C1954.51 434.283 1965.62 422.712 1970.48 398.325H2013.45C2008.96 443.416 1977.25 474.17 1935.97 474.17C1886.22 474.17 1855.67 433.907 1855.67 368.095C1855.67 298.601 1885.45 257.569 1935.2 257.569ZM1214.71 257.569C1237.19 257.569 1257.66 269.14 1267.63 287.93C1273.63 299.877 1274.4 303.053 1274.4 331.384V470.225H1230.68V331.384C1230.68 307.112 1222.63 297.455 1203.83 297.455C1184.91 297.455 1174.05 309.779 1174.05 331.384V470.225H1130.31V261.513H1170.07V283.494C1179.28 266.341 1194.63 257.569 1214.71 257.569ZM1359.18 216.046V261.513H1388.08V299.37H1359.18V470.225H1315.33V299.354H1292.44V261.513H1315.33V216.029L1359.18 216.046ZM1668.73 257.454V301.776C1638.17 301.776 1625.76 315.753 1625.76 349.666V470.225H1582.04V261.513H1621.8V296.571L1622.95 293.396C1632.16 268.633 1644.69 257.454 1665.52 257.454H1668.73ZM1776.65 257.569C1799.15 257.569 1819.6 269.14 1829.7 287.93C1835.38 299.223 1836.38 302.66 1836.47 326.883V470.225H1792.75V331.384C1792.75 307.112 1784.7 297.455 1765.9 297.455C1746.98 297.455 1736.12 309.779 1736.12 331.384V470.225H1692.26V261.513H1732.03V283.494C1741.22 266.341 1756.57 257.569 1776.65 257.569ZM2087.21 216.046V261.513H2116.11V299.37H2087.21V470.225H2043.49V299.354H2020.47V261.513H2043.49V216.029L2087.21 216.046ZM1095.4 204.098V470.225H1048.73V204.098H1095.4ZM1474.38 297.455C1453.42 297.455 1442.67 311.825 1439.48 342.955H1510.56C1509.42 313.855 1496.49 297.455 1474.38 297.455ZM1934.56 297.455C1913.71 297.455 1902.85 311.825 1899.64 342.955H1970.74C1969.46 313.855 1956.67 297.455 1934.56 297.455Z" fill="#0B1F28"/>
<path d="M506.922 15.9892C516.658 15.9892 515.103 22.3723 515.103 28.2317V252.771C519.587 254.424 521.518 250.856 523.449 248.941C558.778 215.945 601.667 199.513 649.039 195.421C715.753 189.807 778.998 201.673 835.453 239.644C900.252 283.23 938.02 344.524 952.992 420.091C967.85 495.412 960.798 568.687 925.6 637.363C880.534 725.172 806.898 773.602 708.832 785.583C679.263 789.265 649.808 789.02 620.616 782.899C586.17 775.763 558.009 757.53 532.4 734.469C523.382 726.641 514.501 718.659 505.76 710.524C505.76 728.478 505.383 743.65 505.891 758.692C506.153 766.221 504.238 769.134 496.04 769.134C448.794 768.753 401.545 768.753 354.299 769.134C346.362 769.134 344.186 766.581 344.186 758.937C344.317 611.503 344.317 464.184 344.317 316.733C344.317 311.643 345.724 307.699 349.062 303.869C411.784 228.679 411.277 118.316 348.408 44.2877C341.748 36.5134 344.693 27.708 345.086 19.1807C345.217 15.6127 349.308 16.1201 351.992 16.1201C403.602 16.1201 455.327 16.251 506.922 15.9892ZM272.612 388.355C282.479 388.224 284.525 391.416 284.525 400.598C284.001 460.501 284.263 520.126 284.263 579.898C284.263 638.771 284.017 697.774 284.525 756.662C284.655 766.712 281.579 769.265 271.712 769.134C222.895 768.627 174.075 768.627 125.258 769.134C115.522 769.265 113.329 766.204 113.329 756.908C113.591 638.247 113.591 519.488 113.329 400.843C113.329 390.647 116.405 388.241 126.142 388.355C174.922 388.863 223.832 388.863 272.612 388.355ZM631.907 352.299C564.161 364.525 519.734 419.322 519.603 493.497C519.387 503.719 520.337 513.933 522.434 523.94C543.936 623.991 647.779 656.48 721.906 614.678C777.346 583.466 802.824 521.779 788.62 456.917C773.124 385.556 703.873 339.287 631.907 352.299ZM221.165 332.806C229.739 332.544 235.892 337.765 236.007 346.554C236.268 355.359 230.509 359.942 222.572 360.449C212.198 360.318 207.714 355.212 207.583 346.308C207.452 337.388 213.343 332.92 221.165 332.806ZM163.402 322.478C173.023 333.82 181.336 346.308 191.203 359.68C159.949 361.972 132.425 354.721 105.933 342.347C102.218 340.711 101.58 338.141 104.002 334.835C107.471 330.252 109.647 323.493 117.715 326.684C126.796 330.383 135.764 334.459 146.383 336.243C146.007 330.252 137.809 325.539 142.538 322.985C148.314 319.925 157.511 315.457 163.402 322.478ZM271.221 264.751C275.836 265.897 274.674 269.596 274.674 272.526V314.311C287.486 307.699 295.799 299.155 303.735 290.235C311.688 281.315 316.548 288.696 321.67 292.788C328.968 298.517 320.393 301.07 317.955 303.361C301.428 319.041 283.756 333.313 264.185 345.163C255.856 350.122 253.172 348.223 253.548 338.665C254.203 318.403 254.072 298.14 254.317 277.747C254.448 269.727 263.547 262.837 271.221 264.751ZM35.7495 260.038C45.1094 261.674 54.5839 262.967 63.9275 264.621C73.9093 266.405 72.2566 275.586 75.3329 281.691C71.3566 284.376 67.642 282.461 64.1893 282.837C63.4202 281.953 62.6512 281.2 61.8984 282.592C61.7512 282.837 62.5203 283.606 62.913 284.228C70.0802 296.094 81.3383 303.869 92.2201 311.643C98.5037 316.226 97.0964 319.417 93.1201 323.869C89.4056 327.961 87.0983 332.806 79.9311 327.061C68.4111 317.895 58.8221 306.667 47.6785 297.24C47.024 296.356 46.5331 295.325 45.8785 294.441C44.2094 295.963 44.9785 297.109 46.3858 298.14C44.7331 302.346 51.7694 310.121 42.0331 311.005C33.1968 311.905 29.875 306.913 30.0059 298.009C30.1368 287.813 28.5986 277.485 27.4368 267.288C26.6677 260.545 29.6131 258.876 35.7658 260.038H35.7495ZM216.043 253.786C194.394 259.023 173.138 259.399 149.591 263.475C168.785 272.264 186.589 277.37 204.392 282.461C194.525 299.662 193.756 300.301 176.607 293.165C164.563 288.074 153.043 281.56 141.262 275.701C140.624 274.948 139.985 273.917 138.971 275.325C138.84 275.325 139.724 276.094 140.116 276.601C141.916 285.39 148.691 291.757 151.898 299.924C135.894 307.437 134.994 307.175 128.596 291.642L114 255.062C112.069 250.348 112.331 248.057 118.467 247.419C143.831 244.62 169.309 241.805 194.525 238.106C206.814 236.322 210.152 244.604 216.043 253.786ZM363.806 182.802C364.559 193.375 364.428 202.557 362.497 211.853C357.771 234.029 350.064 255.463 339.588 275.57C335.366 283.606 330.883 281.053 325.123 277.992C318.724 274.555 319.624 271.38 322.946 265.881C331.406 252.002 339.964 237.991 343.057 221.673C343.302 221.035 343.548 220.528 343.81 219.873C343.07 220.094 342.344 220.356 341.633 220.659L336.577 222.917C335.732 223.268 334.855 223.537 333.959 223.719C329.737 224.603 324.746 233.147 321.539 225.356C319.248 219.889 317.317 211.739 326.284 206.632C338.704 199.627 350.355 191.476 363.806 182.802ZM278.388 132.981C288.632 138.333 292.085 144.83 290.432 156.304C287.732 174.782 280.696 191.476 274.166 208.416C273.774 209.071 273.021 209.955 273.136 210.217C274.036 211.853 274.936 210.969 275.705 210.069C277.996 209.447 280.319 208.285 282.61 208.171C286.455 208.04 291.577 200.004 293.885 208.285C295.554 214.014 300.545 222.443 288.894 225.749C275.478 229.641 262.195 233.976 249.065 238.744C243.174 240.79 241.128 239.252 240.49 233.523C238.445 213.768 236.399 194.013 233.961 174.275C232.816 164.585 240.507 165.862 245.612 164.454C253.172 162.409 252.779 168.153 253.303 172.998C254.317 182.294 255.479 191.476 257.001 203.833C268.73 181.851 275.998 157.783 278.388 132.981ZM110.4 148.022C112.445 175.027 116.291 201.657 121.789 228.171C123.458 236.322 114.491 234.8 110.269 236.96C105.016 239.775 104.509 234.669 103.855 231.363C100.271 214.799 96.8183 198.22 92.7274 178.726C80.5529 196.943 77.7384 215.683 74.9238 235.307C63.273 229.317 57.3821 222.443 60.9657 208.793C64.5064 195.276 70.8325 182.649 79.5383 171.721C73.5166 171.067 69.4257 174.144 64.8112 174.782C61.3584 175.273 56.3676 180.887 54.8294 175.666C53.2912 170.428 50.6076 161.917 58.2821 158.726C73.0093 152.736 88.2274 147.891 103.347 142.67C108.093 141 110.155 143.93 110.4 148.022ZM22.8223 210.839C30.3659 210.969 34.8495 215.945 34.9804 224.341C34.0804 232.116 29.0895 235.815 21.3986 235.569C13.855 235.307 9.50234 230.217 9.61688 223.327C9.76416 215.798 15.1314 210.724 22.8223 210.839ZM26.4059 115.01C30.8895 117.808 39.464 119.347 36.6495 127.367C31.135 143.57 27.4204 159.986 24.3441 176.811C23.0677 184.078 13.986 186.763 6.42599 192.36C4.38055 166.107 9.8787 143.177 19.1077 121C20.2532 118.054 20.2532 111.18 26.4059 115.01ZM353.922 140.755C361.221 140.755 365.05 145.845 366.195 153.112C365.05 160.755 360.959 165.862 353.022 165.862C345.217 165.731 340.095 160.755 340.341 152.85C340.472 144.83 346.362 140.624 353.922 140.739V140.755ZM227.547 76.5144C232.668 90.7864 238.559 104.666 244.565 118.561C247.51 125.566 244.074 127.105 238.298 127.35C207.163 128.766 176.405 134.744 147.005 145.092C135.747 149.053 133.816 137.956 130.364 132.359C127.287 127.121 135.224 126.876 138.545 125.354C159.818 116.041 182.727 113.373 208.843 110.689C183.643 100.999 161.094 94.1253 136.516 93.9944C144.698 77.431 147.905 76.0234 164.678 78.7076C182.22 81.5063 198.354 88.2659 214.619 94.7636C215.11 95.0255 215.634 95.4019 216.141 95.6474C215.983 95.082 215.77 94.5338 215.503 94.0107C215.765 89.7881 212.689 86.6128 211.674 82.9139C210.643 79.215 202.576 74.7631 211.02 71.7025C216.665 69.6566 223.947 66.596 227.547 76.5471V76.5144ZM109.893 43.2403C105.655 65.9249 102.578 88.8715 104.493 112.064C105.524 124.175 95.6565 123.52 89.3892 124.421C81.6983 125.435 83.4983 117.416 83.122 112.964C82.1092 96.0271 83.1864 79.0301 86.3292 62.3569C73.7939 72.0779 62.7127 83.5417 53.4221 96.4003C51.2458 99.3137 49.184 104.797 44.5858 99.7065C41.1167 95.7456 31.7731 93.978 38.0404 84.9107C53.9294 61.8496 73.9093 44.3859 101.302 36.3661C108.093 34.3202 111.824 33.42 109.893 43.2403ZM292.592 44.0095C305.781 53.9443 317.432 65.2866 327.937 77.9056C330.359 80.8517 331.766 84.7797 335.988 86.0727C338.426 83.6504 337.264 80.7207 337.526 78.1675C338.033 74.2067 337.526 69.6239 343.679 70.3931C348.424 70.9005 353.922 70.6386 353.792 77.6601C353.53 90.0172 354.037 102.243 352.384 114.617C351.615 120.083 348.67 120.853 344.317 120.853C332.666 120.853 321.146 121.115 309.495 120.984C303.343 120.853 296.045 111.425 296.945 105.173C297.452 101.736 300.021 101.998 302.312 101.998C307.957 101.867 313.455 101.998 320.639 101.998C309.741 83.5031 296.306 70.5241 280.941 59.5582C275.181 55.4664 273.757 52.684 278.372 46.4318C282.856 40.3106 286.177 39.1649 292.592 44.0095ZM252.763 24.1399C258.408 26.1858 258.523 29.3774 256.854 34.3366C254.825 40.4579 251.617 39.574 246.758 37.6591C233.045 32.3071 218.841 29.2465 201.807 27.086C205.898 35.6132 209.367 42.2419 212.05 49.0014C213.196 52.0621 218.203 56.2684 211.92 58.8217C207.06 60.7202 200.907 63.8954 197.585 56.383C191.318 42.3728 182.727 29.3774 177.621 13.9597C203.983 11.0136 228.692 14.9744 252.763 24.1399ZM137.024 18.166C145.091 18.035 149.067 22.9943 150.213 29.8848C149.443 38.6739 144.698 43.1421 137.024 43.0111C129.987 42.8802 124.473 38.5429 124.473 31.1614C124.473 23.7635 128.825 18.2806 137.024 18.166Z" fill="#00BEF5"/>
</svg>
