<svg xmlns="http://www.w3.org/2000/svg" fill="none" viewBox="0 0 130 49" class="customer-logo">
<title>IB Internet Brands</title>

  <g class="ib-internet-brands-logo">
    <path fill="#0B1F28" d="M117.161 34.541c2.407-.008 3.977 1.413 4.173 3.803h-2.626c-.07-.9-.586-1.366-1.5-1.366-.813 0-1.328.466-1.328 1.195 0 .753.344 1.095 1.422 1.436l1.031.318c1.547.49 1.962.683 2.501 1.32.539.613.836 1.537.836 2.514 0 2.368-1.766 4.02-4.321 4.02-2.579 0-4.438-1.73-4.438-4.144v-.07h2.555c.093 1.219.687 1.778 1.789 1.778 1.031 0 1.696-.613 1.696-1.56 0-.83-.415-1.126-2.087-1.583-1.766-.49-2.477-.877-3.063-1.731-.414-.582-.664-1.39-.664-2.197 0-2.243 1.618-3.733 4.024-3.733Zm-31.974-.031c1.274 0 2.282.636 2.704 1.708v-1.436h2.406v12.752h-2.406V46.12c-.469 1.048-1.47 1.653-2.727 1.653-2.579 0-4.298-2.631-4.298-6.535 0-4.121 1.665-6.729 4.321-6.729Zm26.239-3.244v16.267h-2.383V46.02c-.641 1.273-1.446 1.754-2.821 1.754-2.672 0-4.243-2.46-4.243-6.706 0-4.144 1.641-6.558 4.438-6.558 1.008 0 1.993.535 2.329 1.265v-4.51h2.68Zm-30.95 3.275v2.709c-1.868 0-2.626.853-2.626 2.926v7.365h-2.672v-12.76h2.43v2.15l.07-.194c.563-1.513 1.329-2.196 2.602-2.196h.196ZM67.41 31.274c2.157 0 3.266.294 4.243 1.117.984.807 1.547 2.003 1.547 3.198 0 1.412-.711 2.514-2.063 3.197 1.696.56 2.75 2.12 2.75 4.067 0 1.731-.93 3.415-2.328 4.168-.836.466-1.18.512-2.868.512h-5.188v-16.26h3.907Zm29.731 3.267c1.376 0 2.626.706 3.243 1.855.367.73.414.924.414 2.654v8.483h-2.672V39.05c0-1.49-.492-2.072-1.641-2.072-1.156 0-1.813.753-1.813 2.072v8.483h-2.68V34.782h2.43v1.342c.563-1.047 1.493-1.583 2.72-1.583Zm9.689 2.43c-1.398 0-2.109 1.389-2.109 4.12 0 2.826.711 4.246 2.109 4.246 1.274 0 1.915-1.001 1.915-3.05v-2.561c0-1.809-.664-2.756-1.915-2.756Zm-21.081-.016c-1.375 0-2.133 1.513-2.133 4.19 0 2.733.734 4.192 2.11 4.192 1.226 0 1.89-1.048 1.89-3.02v-2.654c0-1.684-.687-2.708-1.867-2.708ZM67.747 40.54h-1.399v4.385h1.399c2.211 0 3.141-.637 3.141-2.142 0-1.514-1.031-2.243-3.141-2.243Zm56.282-6.085c1.188 0 2.141.993 2.141 2.15 0 1.187-.968 2.15-2.156 2.15-1.188 0-2.165-.97-2.165-2.15a2.17 2.17 0 0 1 2.18-2.15Zm-.007.426c-.954 0-1.696.777-1.696 1.724 0 .954.766 1.723 1.696 1.723.922 0 1.687-.761 1.687-1.724 0-.923-.726-1.722-1.687-1.722Zm-56.423-1.008h-1.25v4.074h1.328c1.64 0 2.5-.706 2.5-2.049 0-1.412-.758-2.026-2.578-2.026Zm56.501 1.723v.007c.375 0 .719.156.719.551 0 .163-.055.357-.321.474.141.062.266.155.282.458.023.341.023.38.062.481h-.477c-.039-.07-.054-.404-.062-.474-.016-.108-.039-.287-.352-.287h-.195v.753h-.492v-1.963h.836Zm-.086.333h-.258v.56h.234c.102 0 .336 0 .336-.304 0-.248-.211-.256-.312-.256ZM89.766 16.022c3.04 0 4.884 2.438 4.884 6.388-.008.334-.008.582-.055 1.14h-7.017v.296c0 1.777.883 2.973 2.212 2.973 1.156 0 1.844-.707 2.133-2.197h2.625c-.273 2.755-2.211 4.634-4.735 4.634-3.04 0-4.907-2.46-4.907-6.481 0-4.246 1.813-6.753 4.86-6.753Zm28.13 0c3.039 0 4.883 2.438 4.883 6.388-.008.334-.008.582-.054 1.14h-7.017v.296c0 1.777.883 2.973 2.211 2.973 1.157 0 1.836-.707 2.133-2.197h2.626c-.274 2.755-2.212 4.634-4.735 4.634-3.04 0-4.907-2.46-4.907-6.481 0-4.246 1.82-6.753 4.86-6.753Zm-44.03 0c1.374 0 2.625.707 3.234 1.855.367.73.414.924.414 2.655v8.483h-2.672v-8.483c0-1.483-.492-2.073-1.641-2.073-1.156 0-1.82.753-1.82 2.073v8.483h-2.673V16.263h2.43v1.343c.563-1.048 1.5-1.584 2.727-1.584Zm8.829-2.537v2.778h1.766v2.313h-1.766v10.439h-2.68v-10.44h-1.399v-2.312h1.399v-2.779h2.68Zm18.917 2.53v2.708c-1.868 0-2.626.854-2.626 2.926v7.366h-2.672V16.263h2.43v2.142l.07-.194c.563-1.513 1.329-2.196 2.602-2.196h.196Zm6.595.007c1.375 0 2.625.707 3.242 1.855.347.69.408.9.414 2.38v8.758h-2.672v-8.483c0-1.483-.492-2.073-1.641-2.073-1.156 0-1.82.753-1.82 2.073v8.483h-2.68V16.263h2.43v1.343c.562-1.048 1.5-1.584 2.727-1.584Zm18.979-2.537v2.778h1.766v2.313h-1.766v10.439h-2.672v-10.44h-1.407v-2.312h1.407v-2.779h2.672Zm-60.611-.73v16.26h-2.852v-16.26h2.852Zm23.16 5.704c-1.281 0-1.938.878-2.133 2.78h4.344c-.07-1.778-.86-2.78-2.211-2.78Zm28.122 0c-1.274 0-1.938.878-2.134 2.78h4.345c-.078-1.778-.86-2.78-2.211-2.78Z" class="logo-fill"/>
    <path fill="#00BEF5" d="M30.612 1.262c.595 0 .5.39.5.748v13.719c.274.101.392-.117.51-.234 2.159-2.016 4.78-3.02 7.675-3.27 4.077-.343 7.942.382 11.392 2.702 3.96 2.663 6.268 6.408 7.183 11.025.908 4.602.477 9.079-1.674 13.275-2.754 5.365-7.254 8.324-13.247 9.056-1.807.225-3.607.21-5.391-.164-2.105-.436-3.826-1.55-5.391-2.959a63.13 63.13 0 0 1-1.628-1.463c0 1.097-.023 2.024.008 2.943.016.46-.101.638-.602.638a536.669 536.669 0 0 0-8.662 0c-.485 0-.618-.156-.618-.623.008-9.008.008-18.009.008-27.018 0-.311.086-.552.29-.786 3.833-4.594 3.802-11.337-.04-15.86-.407-.475-.227-1.013-.203-1.534.008-.218.258-.187.422-.187 3.154 0 6.315.008 9.468-.008ZM16.293 24.013c.603-.008.728.187.728.748-.032 3.66-.016 7.303-.016 10.955 0 3.597-.015 7.202.016 10.8.008.614-.18.77-.783.762a430.67 430.67 0 0 0-8.95 0c-.595.008-.729-.179-.729-.747.016-7.25.016-14.506 0-21.755 0-.623.188-.77.783-.763 2.981.031 5.97.031 8.951 0ZM38.25 21.81c-4.14.747-6.855 4.095-6.863 8.627a8.217 8.217 0 0 0 .173 1.86c1.314 6.113 7.66 8.098 12.19 5.544 3.388-1.907 4.945-5.676 4.077-9.639-.947-4.36-5.18-7.187-9.578-6.392Zm-25.101-1.191c.524-.016.9.303.907.84.016.538-.336.818-.821.849-.634-.008-.908-.32-.916-.864-.008-.545.352-.818.83-.825Zm-3.53-.631c.588.693 1.096 1.456 1.699 2.273-1.91.14-3.592-.303-5.211-1.059-.227-.1-.266-.257-.118-.459.212-.28.345-.693.838-.498.555.226 1.103.475 1.752.584-.023-.366-.524-.654-.235-.81.353-.187.916-.46 1.276-.031Zm6.589-3.527c.282.07.211.296.211.475v2.553c.783-.404 1.291-.926 1.776-1.471.486-.545.783-.094 1.096.156.446.35-.078.506-.227.646-1.01.958-2.09 1.83-3.286 2.554-.509.303-.673.187-.65-.397.04-1.238.032-2.476.047-3.722.008-.49.564-.911 1.033-.794Zm-14.39-.288c.572.1 1.151.179 1.722.28.61.109.509.67.697 1.043-.243.164-.47.047-.681.07-.047-.054-.094-.1-.14-.015-.009.015.038.062.062.1.438.725 1.126 1.2 1.791 1.675.384.28.298.475.055.747-.227.25-.368.546-.806.195-.704-.56-1.29-1.246-1.971-1.822-.04-.054-.07-.117-.11-.171-.102.093-.055.163.031.226-.101.257.329.732-.266.786-.54.055-.743-.25-.735-.794.008-.623-.086-1.254-.157-1.877-.047-.412.133-.514.509-.443Zm11.018-.382c-1.323.32-2.622.343-4.061.592 1.173.537 2.261.849 3.349 1.16-.603 1.051-.65 1.09-1.698.654-.736-.311-1.44-.709-2.16-1.067-.039-.046-.078-.109-.14-.023-.008 0 .046.047.07.078.11.537.524.926.72 1.425-.978.459-1.033.443-1.424-.506L6.6 15.869c-.118-.288-.102-.428.273-.467 1.55-.171 3.107-.343 4.648-.569.751-.109.955.397 1.315.958Zm9.03-4.337c.046.646.038 1.207-.08 1.775a15.347 15.347 0 0 1-1.4 3.893c-.258.491-.532.335-.884.148-.391-.21-.336-.404-.133-.74.517-.848 1.04-1.704 1.229-2.701.015-.039.03-.07.046-.11a1.265 1.265 0 0 0-.133.048l-.309.138a.872.872 0 0 1-.16.049c-.258.054-.563.576-.759.1-.14-.334-.258-.832.29-1.144.759-.428 1.47-.926 2.292-1.456Zm-5.22-3.044c.626.327.837.724.736 1.425-.165 1.129-.595 2.149-.994 3.184-.024.04-.07.094-.063.11.055.1.11.046.157-.009.14-.038.282-.109.422-.116.235-.008.548-.499.689.007.102.35.407.865-.305 1.067a38.82 38.82 0 0 0-2.434.794c-.36.125-.485.031-.524-.319-.125-1.207-.25-2.414-.399-3.62-.07-.592.4-.514.712-.6.462-.125.438.226.47.522.062.568.133 1.129.226 1.884a11.551 11.551 0 0 0 1.307-4.33ZM6.38 9.329c.125 1.65.36 3.277.696 4.897.102.498-.446.405-.704.537-.321.172-.352-.14-.392-.342-.219-1.012-.43-2.025-.68-3.216-.744 1.113-.916 2.258-1.088 3.457-.712-.366-1.072-.786-.853-1.62a6.126 6.126 0 0 1 1.135-2.265c-.368-.04-.618.148-.9.187-.211.03-.516.373-.61.054-.094-.32-.258-.84.211-1.035.9-.366 1.83-.662 2.754-.981.29-.102.415.077.43.327Zm-5.352 3.838c.461.008.735.312.743.825-.055.475-.36.701-.83.686-.461-.016-.727-.327-.72-.748.009-.46.337-.77.807-.763Zm.219-5.855c.274.171.798.265.626.755-.337.99-.564 1.993-.752 3.021-.078.444-.633.608-1.095.95-.125-1.604.211-3.005.775-4.36.07-.18.07-.6.446-.366Zm20.015 1.573c.446 0 .68.311.75.755-.07.467-.32.779-.805.779-.477-.008-.79-.312-.775-.795.008-.49.368-.747.83-.74ZM13.539 4.96c.313.872.673 1.72 1.04 2.569.18.428-.03.522-.383.537A19.469 19.469 0 0 0 8.617 9.15c-.688.242-.806-.436-1.017-.778-.188-.32.297-.335.5-.428 1.3-.569 2.7-.732 4.296-.896-1.54-.592-2.918-1.012-4.42-1.02.5-1.012.696-1.098 1.721-.934 1.072.171 2.058.584 3.052.981.03.016.062.039.093.054a.54.54 0 0 0-.039-.1c.016-.258-.172-.452-.234-.678-.063-.226-.556-.498-.04-.685.345-.125.79-.312 1.01.296Zm-7.19-2.033c-.259 1.386-.447 2.788-.33 4.205.063.74-.54.7-.923.755-.47.062-.36-.428-.383-.7a12.622 12.622 0 0 1 .196-3.092 10.168 10.168 0 0 0-2.011 2.08c-.133.178-.259.513-.54.202-.212-.242-.783-.35-.4-.904.971-1.409 2.192-2.476 3.866-2.966.415-.125.642-.18.524.42Zm11.165.047c.806.607 1.518 1.3 2.16 2.071.148.18.234.42.492.499.149-.148.078-.327.094-.483.031-.242 0-.522.376-.475.29.031.626.015.618.444-.016.755.015 1.502-.086 2.258-.047.334-.227.381-.493.381-.712 0-1.416.016-2.128.008-.376-.008-.822-.584-.767-.966.031-.21.188-.194.328-.194.345-.008.681 0 1.12 0-.666-1.13-1.487-1.923-2.426-2.593-.352-.25-.439-.42-.157-.802.274-.374.477-.444.869-.148ZM15.08 1.76c.345.125.352.32.25.623-.124.374-.32.32-.617.203-.838-.327-1.706-.514-2.747-.646.25.521.462.926.626 1.339.07.187.376.444-.008.6-.297.116-.673.31-.876-.149-.383-.856-.908-1.65-1.22-2.592 1.611-.18 3.121.062 4.592.622Zm-7.073-.365c.493-.008.736.295.806.716-.047.537-.337.81-.806.802-.43-.008-.767-.273-.767-.724 0-.452.266-.787.767-.794Z" class="logo-fill"/>
  </g>
</svg>
