<svg width="2122" height="800" fill="none" xmlns="http://www.w3.org/2000/svg"><path d="M1923.17 560.669c39.39-.13 65.08 23.127 68.28 62.244h-42.97c-1.14-14.73-9.59-22.357-24.54-22.357-13.31 0-21.73 7.627-21.73 19.559 0 12.324 5.63 17.921 23.27 23.503l16.87 5.204c25.31 8.02 32.1 11.179 40.92 21.605 8.82 10.033 13.68 25.156 13.68 41.146 0 38.758-28.9 65.796-70.7 65.796-42.21 0-72.63-28.315-72.63-67.825v-1.146h41.81c1.52 19.952 11.24 29.101 29.28 29.101 16.87 0 27.75-10.033 27.75-25.533 0-13.584-6.79-18.429-34.15-25.909-28.9-8.02-40.53-14.354-50.12-28.331-6.78-9.526-10.87-22.75-10.87-35.958 0-36.712 26.48-61.099 65.85-61.099zm-523.21-.507c20.85 0 37.34 10.41 44.25 27.955v-23.503h39.37v208.712h-39.37v-23.143c-7.68 17.153-24.06 27.055-44.63 27.055-42.2 0-70.33-43.062-70.33-106.959 0-67.448 27.25-110.117 70.71-110.117zm429.36-53.094V773.31h-38.99v-24.764c-10.49 20.836-23.66 28.708-46.16 28.708-43.73 0-69.43-40.263-69.43-109.757 0-67.825 26.85-107.335 72.62-107.335 16.49 0 32.61 8.756 38.11 20.704v-73.815h43.85v.017zm-506.45 53.601v44.339c-30.57 0-42.97 13.961-42.97 47.89v120.543h-43.72V564.598h39.76v35.189l1.15-3.176c9.21-24.763 21.74-35.942 42.57-35.942h3.21zm-213.8-53.471c35.29 0 53.44 4.812 69.43 18.282 16.1 13.209 25.31 32.784 25.31 52.342 0 23.11-11.63 41.147-33.76 52.325 27.76 9.166 45 34.699 45 66.565 0 28.331-15.22 55.894-38.09 68.218-13.68 7.627-19.31 8.38-46.93 8.38h-84.9V507.182l63.94.016zm486.5 53.471c22.52 0 42.97 11.556 53.07 30.361 6 11.948 6.77 15.123 6.77 43.438V773.31h-43.72V634.468c0-24.386-8.05-33.912-26.85-33.912-18.92 0-29.67 12.324-29.67 33.912V773.31h-43.86V564.614h39.77v21.964c9.21-17.136 24.41-25.909 44.49-25.909zm158.55 39.772c-22.88 0-34.51 22.734-34.51 67.432 0 46.254 11.63 69.495 34.51 69.495 20.84 0 31.33-16.384 31.33-49.92v-41.915c0-29.608-10.86-45.092-31.33-45.092zm-344.96-.262c-22.5 0-34.91 24.764-34.91 68.578 0 44.731 12.01 68.611 34.53 68.611 20.06 0 30.93-17.153 30.93-49.429v-43.438c0-27.562-11.24-44.322-30.55-44.322zm-294.58 58.676h-22.89v71.77h22.89c36.18 0 51.4-10.426 51.4-35.059 0-24.779-16.87-36.711-51.4-36.711zm920.97-99.593c19.44 0 35.04 16.252 35.04 35.189 0 19.428-15.84 35.189-35.28 35.189s-35.43-15.876-35.43-35.189a35.552 35.552 0 0110.57-24.96 35.512 35.512 0 0125.1-10.229zm-.11 6.972c-15.61 0-27.75 12.717-27.75 28.217 0 15.614 12.53 28.2 27.75 28.2 15.09 0 27.6-12.455 27.6-28.216 0-15.107-11.88-28.201-27.6-28.201zm-923.28-16.498h-20.46v66.68h21.73c26.84 0 40.91-11.556 40.91-33.536 0-23.111-12.4-33.144-42.18-33.144zm924.56 28.201v.114c6.13 0 11.76 2.554 11.76 9.018 0 2.668-.9 5.843-5.25 7.758 2.31 1.015 4.35 2.537 4.61 7.497.38 5.581.38 6.219 1.02 7.872h-7.81c-.64-1.146-.88-6.612-1.01-7.758-.26-1.768-.64-4.697-5.76-4.697h-3.19v12.324h-8.05v-32.128h13.68zm-1.41 5.45h-4.22v9.165h3.83c1.66 0 5.49 0 5.49-4.975 0-4.059-3.45-4.19-5.1-4.19zm-560.42-325.818c49.74 0 79.92 39.902 79.92 104.552-.13 5.467-.13 9.526-.9 18.659h-114.82v4.844c0 29.084 14.45 48.659 36.19 48.659 18.92 0 30.18-11.571 34.91-35.958h42.95c-4.47 45.091-36.18 75.845-77.48 75.845-49.75 0-80.3-40.263-80.3-106.075 0-69.494 29.67-110.526 79.53-110.526zm460.31 0c49.73 0 79.9 39.902 79.9 104.552-.13 5.467-.13 9.526-.88 18.659h-114.83v4.844c0 29.084 14.45 48.659 36.18 48.659 18.94 0 30.05-11.571 34.91-35.958h42.97c-4.49 45.091-36.2 75.845-77.48 75.845-49.75 0-80.3-40.263-80.3-106.075 0-69.494 29.78-110.526 79.53-110.526zm-720.49 0c22.48 0 42.95 11.571 52.92 30.361 6 11.947 6.77 15.123 6.77 43.454v138.841h-43.72V331.384c0-24.272-8.05-33.929-26.85-33.929-18.92 0-29.78 12.324-29.78 33.929v138.841h-43.74V261.513h39.76v21.981c9.21-17.153 24.56-25.925 44.64-25.925zm144.47-41.523v45.467h28.9v37.857h-28.9v170.855h-43.85V299.354h-22.89v-37.841h22.89v-45.484l43.85.017zm309.55 41.408v44.322c-30.56 0-42.97 13.977-42.97 47.89v120.559h-43.72V261.513h39.76v35.058l1.15-3.175c9.21-24.763 21.74-35.942 42.57-35.942h3.21zm107.92.115c22.5 0 42.95 11.571 53.05 30.361 5.68 11.293 6.68 14.73 6.77 38.953v143.342h-43.72V331.384c0-24.272-8.05-33.929-26.85-33.929-18.92 0-29.78 12.324-29.78 33.929v138.841h-43.86V261.513h39.77v21.981c9.19-17.153 24.54-25.925 44.62-25.925zm310.56-41.523v45.467h28.9v37.857h-28.9v170.855h-43.72V299.354h-23.02v-37.841h23.02v-45.484l43.72.017zm-991.81-11.948v266.127h-46.67V204.098h46.67zm378.98 93.357c-20.96 0-31.71 14.37-34.9 45.5h71.08c-1.14-29.1-14.07-45.5-36.18-45.5zm460.18 0c-20.85 0-31.71 14.37-34.92 45.5h71.1c-1.28-29.1-14.07-45.5-36.18-45.5z" fill="#0B1F28"/><path d="M506.922 15.99c9.736 0 8.181 6.382 8.181 12.242V252.77c4.484 1.653 6.415-1.915 8.346-3.83 35.329-32.996 78.218-49.428 125.59-53.52 66.714-5.614 129.959 6.252 186.414 44.223 64.799 43.586 102.567 104.88 117.539 180.447 14.858 75.321 7.806 148.596-27.392 217.272-45.066 87.809-118.702 136.239-216.768 148.22-29.569 3.682-59.024 3.437-88.216-2.684-34.446-7.136-62.607-25.369-88.216-48.43a1034.395 1034.395 0 01-26.64-23.945c0 17.954-.377 33.126.131 48.168.262 7.529-1.653 10.442-9.851 10.442a8788.643 8788.643 0 00-141.741 0c-7.937 0-10.113-2.553-10.113-10.197.131-147.434.131-294.753.131-442.204 0-5.09 1.407-9.034 4.745-12.864 62.722-75.19 62.215-185.553-.654-259.581-6.66-7.775-3.715-16.58-3.322-25.107.131-3.568 4.222-3.06 6.906-3.06 51.61 0 103.335.13 154.93-.132zm-234.31 372.365c9.867-.131 11.913 3.061 11.913 12.243-.524 59.903-.262 119.528-.262 179.3 0 58.873-.246 117.876.262 176.764.13 10.05-2.946 12.603-12.813 12.472a7051.07 7051.07 0 00-146.454 0c-9.736.131-11.929-2.93-11.929-12.226.262-118.661.262-237.42 0-356.065 0-10.196 3.076-12.602 12.813-12.488 48.78.508 97.69.508 146.47 0zm359.295-36.056c-67.746 12.226-112.173 67.023-112.304 141.198a134.573 134.573 0 002.831 30.443c21.502 100.051 125.345 132.54 199.472 90.738 55.44-31.212 80.918-92.899 66.714-157.761-15.496-71.361-84.747-117.63-156.713-104.618zm-410.742-19.493c8.574-.262 14.727 4.959 14.842 13.748.261 8.805-5.498 13.388-13.435 13.895-10.374-.131-14.858-5.237-14.989-14.141-.131-8.92 5.76-13.388 13.582-13.502zm-57.763-10.328c9.621 11.342 17.934 23.83 27.801 37.202-31.254 2.292-58.778-4.959-85.27-17.333-3.715-1.636-4.353-4.206-1.931-7.512 3.469-4.583 5.645-11.342 13.713-8.151 9.081 3.699 18.049 7.775 28.668 9.559-.376-5.991-8.574-10.704-3.845-13.258 5.776-3.06 14.973-7.528 20.864-.507zm107.819-57.727c4.615 1.146 3.453 4.845 3.453 7.775v41.785c12.812-6.612 21.125-15.156 29.061-24.076 7.953-8.92 12.813-1.539 17.935 2.553 7.298 5.729-1.277 8.282-3.715 10.573-16.527 15.68-34.199 29.952-53.77 41.802-8.329 4.959-11.013 3.06-10.637-6.498.655-20.262.524-40.525.769-60.918.131-8.02 9.23-14.91 16.904-12.996zM35.75 260.038c9.36 1.636 18.834 2.929 28.178 4.583 9.981 1.784 8.329 10.965 11.405 17.07-3.976 2.685-7.691.77-11.144 1.146-.769-.884-1.538-1.637-2.29-.245-.148.245.621 1.014 1.014 1.636 7.167 11.866 18.425 19.641 29.307 27.415 6.284 4.583 4.876 7.774.9 12.226-3.714 4.092-6.022 8.937-13.189 3.192-11.52-9.166-21.109-20.394-32.252-29.821-.655-.884-1.146-1.915-1.8-2.799-1.67 1.522-.9 2.668.507 3.699-1.653 4.206 5.383 11.981-4.353 12.865-8.836.9-12.158-4.092-12.027-12.996.13-10.196-1.407-20.524-2.57-30.721-.768-6.743 2.177-8.412 8.33-7.25h-.017zm180.293-6.252c-21.649 5.237-42.905 5.613-66.452 9.689 19.194 8.789 36.998 13.895 54.801 18.986-9.867 17.201-10.636 17.84-27.785 10.704-12.044-5.091-23.564-11.605-35.345-17.464-.638-.753-1.277-1.784-2.291-.376-.131 0 .753.769 1.145 1.276 1.8 8.789 8.575 15.156 11.782 23.323-16.004 7.513-16.904 7.251-23.302-8.282L114 255.062c-1.931-4.714-1.669-7.005 4.467-7.643 25.364-2.799 50.842-5.614 76.058-9.313 12.289-1.784 15.627 6.498 21.518 15.68zm147.763-70.984c.753 10.573.622 19.755-1.309 29.051a251.227 251.227 0 01-22.909 63.717c-4.222 8.036-8.705 5.483-14.465 2.422-6.399-3.437-5.499-6.612-2.177-12.111 8.46-13.879 17.018-27.89 20.111-44.208.245-.638.491-1.145.753-1.8-.74.221-1.466.483-2.177.786l-5.056 2.258a14.19 14.19 0 01-2.618.802c-4.222.884-9.213 9.428-12.42 1.637-2.291-5.467-4.222-13.617 4.745-18.724 12.42-7.005 24.071-15.156 37.522-23.83zm-85.418-49.821c10.244 5.352 13.697 11.849 12.044 23.323-2.7 18.478-9.736 35.172-16.266 52.112-.392.655-1.145 1.539-1.03 1.801.9 1.636 1.8.752 2.569-.148 2.291-.622 4.614-1.784 6.905-1.898 3.845-.131 8.967-8.167 11.275.114 1.669 5.729 6.66 14.158-4.991 17.464a635.083 635.083 0 00-39.829 12.995c-5.891 2.046-7.937.508-8.575-5.221-2.045-19.755-4.091-39.51-6.529-59.248-1.145-9.69 6.546-8.413 11.651-9.821 7.56-2.045 7.167 3.699 7.691 8.544 1.014 9.296 2.176 18.478 3.698 30.835a188.986 188.986 0 0021.387-70.852zM110.4 148.022c2.045 27.005 5.891 53.635 11.389 80.149 1.669 8.151-7.298 6.629-11.52 8.789-5.253 2.815-5.76-2.291-6.414-5.597-3.584-16.564-7.037-33.143-11.128-52.637-12.174 18.217-14.989 36.957-17.803 56.581-11.651-5.99-17.542-12.864-13.958-26.514a100.275 100.275 0 0118.572-37.072c-6.021-.654-10.112 2.423-14.727 3.061-3.453.491-8.443 6.105-9.982.884-1.538-5.238-4.221-13.749 3.453-16.94 14.727-5.99 29.945-10.835 45.065-16.056 4.746-1.67 6.808 1.26 7.053 5.352zm-87.578 62.817c7.544.13 12.027 5.106 12.158 13.502-.9 7.775-5.89 11.474-13.581 11.228-7.544-.262-11.897-5.352-11.782-12.242.147-7.529 5.514-12.603 13.205-12.488zm3.584-95.829c4.484 2.798 13.058 4.337 10.244 12.357-5.515 16.203-9.23 32.619-12.306 49.444-1.276 7.267-10.358 9.952-17.918 15.549-2.045-26.253 3.453-49.183 12.682-71.36 1.145-2.946 1.145-9.82 7.298-5.99zm327.516 25.745c7.299 0 11.128 5.09 12.273 12.357-1.145 7.643-5.236 12.75-13.173 12.75-7.805-.131-12.927-5.107-12.681-13.012.131-8.02 6.021-12.226 13.581-12.111v.016zm-126.375-64.24c5.121 14.271 11.012 28.151 17.018 42.046 2.945 7.005-.491 8.544-6.267 8.789a318.563 318.563 0 00-91.293 17.742c-11.258 3.961-13.189-7.136-16.641-12.733-3.077-5.238 4.86-5.483 8.181-7.005 21.273-9.313 44.182-11.981 70.298-14.665-25.2-9.69-47.749-16.564-72.327-16.695 8.182-16.563 11.389-17.97 28.162-15.286 17.542 2.798 33.676 9.558 49.941 16.056.491.261 1.015.638 1.522.883a8.82 8.82 0 00-.638-1.636c.262-4.223-2.814-7.398-3.829-11.097-1.031-3.699-9.098-8.15-.654-11.212 5.645-2.045 12.927-5.106 16.527 4.845v-.033zM109.893 43.24c-4.238 22.685-7.315 45.631-5.4 68.824 1.031 12.111-8.837 11.456-15.104 12.357-7.69 1.014-5.89-7.005-6.267-11.457a206.624 206.624 0 013.207-50.607A166.407 166.407 0 0053.422 96.4c-2.176 2.914-4.238 8.397-8.836 3.306-3.47-3.96-12.813-5.728-6.546-14.795 15.89-23.061 35.87-40.525 63.262-48.545 6.791-2.046 10.522-2.946 8.591 6.874zm182.699.77c13.189 9.934 24.84 21.277 35.345 33.896 2.422 2.946 3.829 6.874 8.051 8.167 2.438-2.423 1.276-5.352 1.538-7.905.507-3.961 0-8.544 6.153-7.775 4.745.507 10.243.246 10.113 7.267-.262 12.357.245 24.583-1.408 36.957-.769 5.466-3.714 6.236-8.067 6.236-11.651 0-23.171.262-34.822.131-6.152-.131-13.45-9.559-12.55-15.811.507-3.437 3.076-3.175 5.367-3.175 5.645-.131 11.143 0 18.327 0-10.898-18.495-24.333-31.474-39.698-42.44-5.76-4.092-7.184-6.874-2.569-13.126 4.484-6.121 7.805-7.267 14.22-2.422zm-39.829-19.87c5.645 2.046 5.76 5.237 4.091 10.197-2.029 6.12-5.237 5.237-10.096 3.322-13.713-5.352-27.917-8.412-44.951-10.573 4.091 8.527 7.56 15.156 10.243 21.915 1.146 3.061 6.153 7.267-.13 9.82-4.86 1.9-11.013 5.074-14.335-2.438-6.267-14.01-14.858-27.006-19.964-42.423 26.362-2.946 51.071 1.014 75.142 10.18zm-115.739-5.974c8.067-.131 12.043 4.828 13.189 11.719-.77 8.789-5.515 13.257-13.189 13.126-7.037-.13-12.551-4.468-12.551-11.85 0-7.398 4.352-12.88 12.551-12.995z" fill="#00BEF5"/></svg>