<svg xmlns="http://www.w3.org/2000/svg" id="Layer_2" viewBox="0 0 317.06 122.83"><defs><style>.cls-1{fill:#ee3224;}</style></defs><g id="Layer_1-2"><path class="cls-1" d="M316,82.01c-5.77,3.72-11.99,6.69-18.51,8.84-6,1.93-12.27,2.91-18.58,2.9-10.1,0-18.21-2.84-24.33-8.51-6.12-5.67-9.18-13.16-9.19-22.45,0-9.22,3.06-16.64,9.19-22.26,6.13-5.62,14.24-8.44,24.33-8.45,6.39-.01,12.75,.94,18.85,2.84,6.43,2.05,12.56,4.93,18.24,8.57V10.13c-6.8-3.32-13.95-5.88-21.31-7.64C287.63,.84,280.4,0,273.15,.01c-9.56-.16-19.08,1.32-28.15,4.35-8.21,2.89-15.74,7.46-22.1,13.4-6.23,5.71-11.21,12.65-14.64,20.37-3.33,7.84-4.99,16.28-4.88,24.8-.11,8.46,1.54,16.84,4.84,24.63,.49,1.13,1,2.25,1.61,3.35h-48.55V6.26c0-3.26-2.64-5.9-5.9-5.9H0V31.74H38.14V116.39c0,3.26,2.64,5.9,5.9,5.9h36.52V31.74h40.15V122.29h96.29v-21.22s.52,1.78,5.89,6.77c6.28,5.85,13.63,10.41,21.66,13.44,1.52,.59,3.06,1.08,4.63,1.55-18.64-13.94-30.78-35.34-30.3-57.42,.74-34,31.13-56.72,67.87-50.74,2.12,.35,4.21,.81,6.25,1.34l-1.95-10.65,23,17.5-29.33,4,7.77-8.92c-29.1-5.27-56.72,8.5-63.94,33.17-7.89,27,11.64,56.84,43.63,66.63,13.08,3.94,27.05,3.81,40.05-.38,1.62-.74,3.24-1.51,4.83-2.33l-1.06-33.02Z"/></g></svg>