<svg width="2065" height="800" viewBox="0 0 2065 800" fill="none" xmlns="http://www.w3.org/2000/svg">
<path d="M2025.75 530.448C1989.35 553.92 1950.1 572.659 1908.97 586.224C1871.11 598.401 1831.55 604.584 1791.74 604.521C1728.01 604.521 1676.85 586.602 1638.23 550.828C1599.62 515.053 1580.31 467.796 1580.25 409.181C1580.25 351.008 1599.56 304.192 1638.23 268.733C1676.91 233.274 1728.08 215.481 1791.74 215.418C1832.06 215.355 1872.18 221.349 1910.67 233.337C1951.24 246.271 1989.92 264.442 2025.75 287.409V76.9255C1982.85 55.9782 1937.74 39.826 1891.3 28.7214C1846.76 18.3108 1801.14 13.0108 1755.4 13.0739C1695.08 12.0644 1635.02 21.4024 1577.79 40.52C1525.99 58.7543 1478.48 87.5885 1438.35 125.067C1399.05 161.094 1367.63 204.881 1345.98 253.59C1324.97 303.056 1314.5 356.308 1315.19 410.064C1314.5 463.442 1324.91 516.315 1345.73 565.466C1348.82 572.596 1352.04 579.662 1355.89 586.603H1049.57V52.508C1049.57 31.9392 1032.91 15.2822 1012.35 15.2822H32V213.273H272.638V747.367C272.638 767.936 289.295 784.593 309.864 784.593H540.281V213.273H793.601V784.593H1401.13V650.706C1401.13 650.706 1404.41 661.937 1438.29 693.421C1477.91 730.332 1524.29 759.103 1574.95 778.22C1584.54 781.943 1594.26 785.035 1604.16 788C1486.56 700.046 1409.96 565.024 1412.99 425.712C1417.66 211.191 1609.4 67.8399 1841.2 105.57C1854.58 107.779 1867.77 110.681 1880.64 114.025L1868.33 46.8295L2013.45 157.245L1828.4 182.483L1877.42 126.202C1693.82 92.9515 1519.55 179.833 1474 335.487C1424.22 505.842 1547.44 694.115 1749.28 755.885C1831.8 780.744 1919.95 779.924 2001.97 753.487C2012.19 748.818 2022.41 743.96 2032.44 738.786L2025.75 530.448Z" fill="#EE3224"/>
</svg>
