<?xml version="1.0" encoding="utf-8"?>
<!-- Generator: Adobe Illustrator 24.1.0, SVG Export Plug-In . SVG Version: 6.00 Build 0)  -->
<svg version="1.1" id="Layer_1" xmlns="http://www.w3.org/2000/svg" xmlns:xlink="http://www.w3.org/1999/xlink" x="0px" y="0px"
	 viewBox="0 0 792 792" style="enable-background:new 0 0 792 792;" xml:space="preserve">
<g id="XMLID_2_">
	<path id="XMLID_6_" d="M351.5,386c2.1,1.2,3.2,2,5.9,5.5c2.4,3,3.8,12.9,4.1,18.4c0.2,3.2,0.4,8.4,0.4,11.6v26.7
		c0,3.2-0.1,8.5-0.1,11.7c-0.1,4.6-0.8,12.8-2.3,15.2c-1.9,3.2-3.8,3.8-5,4.4c-1,0.6-3.9,1.7-3.4,4.1c0.5,2.4,3.5,2.4,4.7,2.4H414
		c1.2,0,4.2,0,4.7-2.4c0.5-2.4-2.3-3.6-3.3-4.1c-1.3-0.7-2.5-1.1-4.6-3.7c-2.3-2.9-2.6-10.7-2.7-16.1c-0.1-3.2-0.2-8.4-0.2-11.7
		v-78.5c0-2.3-0.9-4.2-2.6-5.3c-1.6-1.1-3.8-1.3-5.9-0.6c-0.1,0-10.5,3.9-24.8,8c-14.8,4.2-20.2,5.8-20.2,5.8
		c-7.1,2.1-9.6,2.9-9.6,4.8c0,0.9,0.8,1.5,1.6,1.8C347.6,384.4,350.3,385.2,351.5,386"/>
	<path id="XMLID_5_" d="M553.9,372.6c-4.9-6.7-13.7-11.3-24.9-11.3c-10.8,0-19.4,2.8-28.6,9.2c-4.8,3.4-11.1,9.3-11.3,9.6
		c-0.2,0.2-0.3,0.3-0.5,0.4c0-0.2,0-0.4,0-0.6v-10.5c0-2.3-0.9-4.2-2.6-5.3c-1.6-1.1-3.8-1.3-5.9-0.6c-0.1,0-10.5,3.9-24.8,8
		c-14.8,4.2-19.1,5.5-19.1,5.5c-7.1,2.1-10.7,2.8-10.7,5.1c0,0.9,0.8,1.5,1.6,1.8c1.3,0.5,4,1.4,5.2,2.1c2.1,1.2,3.2,2,5.9,5.5
		c2.4,3,3.8,12.9,4.1,18.4c0.2,3.2,0.4,8.4,0.4,11.6v26.7c0,3.2-0.1,8.5-0.1,11.7c-0.1,4.6-0.8,12.8-2.3,15.2
		c-1.9,3.2-3.8,3.8-5,4.4c-1,0.6-3.9,1.7-3.4,4.1c0.5,2.4,3.5,2.4,4.7,2.4h58.1c1.2,0,4.2,0,4.7-2.4c0.5-2.4-2.3-3.5-3.3-4.1
		c-1.3-0.7-2.5-1.1-4.6-3.7c-2.3-2.9-2.6-10.7-2.7-16.1c-0.1-3.2-0.2-8.4-0.2-11.7c0,0,0-37.5,0-50c0-5.4,2.2-8,3.9-9.8
		c1.8-1.9,5.6-4.3,10.4-4.5c4.8-0.2,7.6,1.7,9,3.3c3.1,3.8,2.4,13.5,2.6,21.5c0.1,3.2,0.2,8.4,0.2,11.6v41.5c0,1.6-0.1,5.7-0.3,8.8
		c-0.1,2.1-0.6,5.5-1.9,7c-0.7,0.9-1.5,1.3-2.3,1.7c-2.4,1.3-3.4,2.8-3,4.4c0.4,1.6,2,2.5,4.8,2.5h54.6c1.2,0,4.2,0,4.7-2.4
		c0.4-2.4-2.4-3.5-3.5-3.9c-1.1-0.4-4.1-1.9-5.4-4c-1-1.7-1.4-4.4-1.4-5.4c-0.2-3.1-0.4-7.1-0.4-8.8c0,0-0.1-43.2,0-57.6
		C560.6,390.4,560.6,381.8,553.9,372.6"/>
	<path id="XMLID_4_" d="M172,338.9c0-3.5,2.5-5.4,3.6-6.2c5.8-4.1,6-5.6,6-6.2c0-1.4-0.8-3.4-8.1-3.4h-74c-7.2,0-7.5,1.9-7.5,3.4
		c0,1.4,1.9,2.5,6.9,4.5c2.8,1.1,7,3.2,10.4,7.9c1.6,2.3,4.2,5.2,6.4,8.6c3.7,5.6,7.5,13.1,7.5,13.2c1.5,2.9,3.7,7.6,5,10.5
		l51.2,113.5c1,2.2,2.6,3.5,4.4,3.5h0.1c1.8,0,3.4-1.2,4.5-3.4c0,0,31.2-63.6,41.9-84.7c0.8-1.5,2.1-4,3.3-4c1.5,0,2.3,2.5,2.5,2.9
		l37.4,85.6c1.3,3.1,3.3,3.5,4.4,3.5c1.1-0.1,3-0.4,4.4-3.5c0.4-0.9,39.8-87.3,54.3-117.5c3.7-7.7,10.1-17,19.3-17
		c3.4,0,6.5,0.8,6.5,0.8c3.1,0.8,8.2,2.2,11.3,3c0.2,0.1,5.1,1.4,9.4,1.4c15.8,0,27.3-11.1,27.3-26.5c0-14.8-12.1-25.9-28.2-25.9
		c-24.7,0-37.6,28.5-50.1,56l-1.6,3.5c-7.4,16.1-23.5,50.7-25.1,54.2c-1,2.1-1.9,4-3,4c-1.2,0-2.6-3.8-2.7-4.1l-22.4-53.3
		c-1.2-3-3.1-7.8-4.2-10.8c-0.8-2.3-2.9-8.8-2.9-11.6c0-6,5.8-8.8,6.1-8.9c6.6-3.1,6.6-4.9,6.6-5.6c0-1.4-0.8-3.4-8.1-3.4h-73.7
		c-7.2,0-8.1,1.9-8.1,3.4c0,1.3,1.6,3,6.9,4.6c2.2,0.7,4.3,2.1,6.3,4c2.7,2.6,6.1,9.7,7.3,12.1c1.3,2.9,3.5,7.6,4.8,10.6l9.2,21.6
		c1,2.4,1.5,6.5,0.4,8.8c0,0-6.9,13.9-9.8,20.1c-1.8,3.9-5.9,12.6-8.7,12.6c-3,0-7.3-10.3-9.9-15.7c-6.1-12.9-17.1-39.3-22.8-52.4
		C175.1,349.5,172,342.4,172,338.9"/>
	<path id="XMLID_3_" d="M658.5,388.5c-2.9-10.5,1-19.8-12.4-19.8c-12.5,0-24.4,12.7-26.2,35.7c-2,25.6,11.2,49.3,37.6,49.3
		c14.6,0,24.2-5.4,33.1-11.5c3.6-2.4,6-3.6,7.8-2.5c3.1,1.9,0.8,6.8-0.2,8.9c-0.1,0.2-2.2,4.6-4.9,8.9c-3.5,5.7-7.5,10.7-11.8,14.9
		c-11.2,10.9-25.3,16.5-41.7,16.5c-35.8,0-61.7-26-61.7-61.7c0-37,27.3-66,67.1-65.9c10.1,0,19.7,1.6,26.2,3.9
		c9.2,3.2,21.4,9.5,21.4,21.3c0,7.2-4,16.2-15.7,16.3C667.3,402.9,660.7,396.5,658.5,388.5"/>
</g>
</svg>
