<svg width="2574" height="800" viewBox="0 0 2574 800" fill="none" xmlns="http://www.w3.org/2000/svg">
<path d="M1101.24 359.239C1109.99 364.239 1114.57 367.572 1125.82 382.155C1135.82 394.655 1141.66 435.905 1142.91 458.822C1143.74 472.155 1144.57 493.821 1144.57 507.155V618.404C1144.57 631.737 1144.16 653.82 1144.16 667.153C1143.74 686.32 1140.82 720.486 1134.57 730.486C1126.66 743.819 1118.74 746.319 1113.74 748.819C1109.57 751.319 1097.49 755.903 1099.57 765.902C1101.66 775.902 1114.16 775.902 1119.16 775.902H1361.65C1366.65 775.902 1379.15 775.902 1381.24 765.902C1383.32 755.903 1371.65 750.903 1367.49 748.819C1362.07 745.903 1357.07 744.236 1348.32 733.403C1338.74 721.319 1337.49 688.82 1337.07 666.32C1336.66 652.987 1336.24 631.32 1336.24 617.57V290.49C1336.24 280.906 1332.49 272.99 1325.41 268.406C1318.74 263.823 1309.57 262.99 1300.82 265.906C1300.41 265.906 1257.07 282.156 1197.49 299.24C1135.82 316.739 1113.32 323.406 1113.32 323.406C1083.74 332.156 1073.32 335.489 1073.32 343.406C1073.32 347.156 1076.66 349.656 1079.99 350.906C1084.99 352.572 1096.24 355.906 1101.24 359.239Z" fill="black"/>
<path d="M1944.57 303.419C1924.15 275.503 1887.49 256.336 1840.82 256.336C1795.82 256.336 1759.99 268.003 1721.66 294.669C1701.66 308.836 1675.41 333.419 1674.57 334.669C1673.74 335.502 1673.32 335.919 1672.49 336.335C1672.49 335.502 1672.49 334.669 1672.49 333.835V290.086C1672.49 280.502 1668.74 272.586 1661.66 268.003C1654.99 263.419 1645.82 262.586 1637.07 265.503C1636.66 265.503 1593.32 281.752 1533.74 298.836C1472.07 316.336 1454.16 321.752 1454.16 321.752C1424.57 330.502 1409.57 333.419 1409.57 343.002C1409.57 346.752 1412.91 349.252 1416.24 350.502C1421.66 352.585 1432.91 356.335 1437.91 359.252C1446.66 364.252 1451.24 367.585 1462.49 382.168C1472.49 394.668 1478.32 435.918 1479.57 458.834C1480.41 472.168 1481.24 493.834 1481.24 507.167V618.416C1481.24 631.75 1480.82 653.833 1480.82 667.166C1480.41 686.333 1477.49 720.499 1471.24 730.499C1463.32 743.832 1455.41 746.332 1450.41 748.832C1446.24 751.332 1434.16 755.915 1436.24 765.915C1438.32 775.915 1450.82 775.915 1455.82 775.915H1697.91C1702.91 775.915 1715.41 775.915 1717.49 765.915C1719.57 755.915 1707.91 751.332 1703.74 748.832C1698.32 745.915 1693.32 744.249 1684.57 733.415C1674.99 721.332 1673.74 688.833 1673.32 666.333C1672.91 653 1672.49 631.333 1672.49 617.583C1672.49 617.583 1672.49 461.334 1672.49 409.251C1672.49 386.752 1681.66 375.918 1688.74 368.418C1696.24 360.502 1712.07 350.502 1732.07 349.669C1752.07 348.835 1763.74 356.752 1769.57 363.418C1782.49 379.252 1779.57 419.668 1780.41 453.001C1780.82 466.334 1781.24 488.001 1781.24 501.334V674.249C1781.24 680.916 1780.82 697.999 1779.99 710.916C1779.57 719.666 1777.49 733.832 1772.07 740.082C1769.16 743.832 1765.82 745.499 1762.49 747.165C1752.49 752.582 1748.32 758.832 1749.99 765.499C1751.66 772.165 1758.32 775.915 1769.99 775.915H1997.49C2002.49 775.915 2014.99 775.915 2017.07 765.915C2018.74 755.915 2007.07 751.332 2002.49 749.665C1997.9 747.999 1985.4 741.749 1979.99 732.999C1975.82 725.916 1974.15 714.666 1974.15 710.499C1973.32 697.582 1972.49 680.916 1972.49 673.833C1972.49 673.833 1972.07 493.834 1972.49 433.835C1972.49 377.585 1972.49 341.752 1944.57 303.419Z" fill="black"/>
<path d="M353.331 162.999C353.331 148.416 363.748 140.499 368.331 137.166C392.497 120.083 393.331 113.833 393.331 111.333C393.331 105.499 389.997 97.1661 359.581 97.1661H51.2498C21.25 97.1661 20 105.083 20 111.333C20 117.166 27.9166 121.749 48.7498 130.082C60.4164 134.666 77.9163 143.416 92.0828 162.999C98.7495 172.582 109.583 184.665 118.749 198.832C134.166 222.165 149.999 253.415 149.999 253.832C156.249 265.915 165.416 285.498 170.832 297.581L384.164 770.494C388.331 779.661 394.997 785.077 402.497 785.077H402.914C410.414 785.077 417.081 780.077 421.664 770.911C421.664 770.911 551.663 505.913 596.246 417.997C599.579 411.747 604.996 401.33 609.996 401.33C616.246 401.33 619.579 411.747 620.413 413.414L776.245 770.077C781.661 782.994 789.995 784.661 794.578 784.661C799.161 784.244 807.078 782.994 812.911 770.077C814.578 766.327 978.743 406.33 1039.16 280.498C1054.58 248.415 1081.24 209.665 1119.58 209.665C1133.74 209.665 1146.66 212.998 1146.66 212.998C1159.58 216.332 1180.83 222.165 1193.74 225.498C1194.58 225.915 1214.99 231.332 1232.91 231.332C1298.74 231.332 1346.66 185.082 1346.66 120.916C1346.66 59.2496 1296.24 13 1229.16 13C1126.24 13 1072.49 131.749 1020.41 246.332L1013.74 260.915C982.91 327.998 915.827 472.163 909.161 486.746C904.994 495.496 901.244 503.413 896.661 503.413C891.661 503.413 885.827 487.58 885.411 486.33L792.078 264.248C787.078 251.748 779.161 231.748 774.578 219.248C771.245 209.665 762.495 182.582 762.495 170.915C762.495 145.916 786.661 134.249 787.911 133.832C815.411 120.916 815.411 113.416 815.411 110.499C815.411 104.666 812.078 96.3327 781.661 96.3327H474.58C444.58 96.3327 440.83 104.249 440.83 110.499C440.83 115.916 447.497 122.999 469.58 129.666C478.747 132.582 487.497 138.416 495.83 146.332C507.08 157.166 521.247 186.749 526.247 196.749C531.663 208.832 540.83 228.415 546.246 240.915L584.579 330.914C588.746 340.914 590.829 357.997 586.246 367.581C586.246 367.581 557.496 425.497 545.413 451.33C537.913 467.58 520.83 503.83 509.163 503.83C496.663 503.83 478.747 460.913 467.914 438.413C442.497 384.664 396.664 274.665 372.914 220.082C366.248 207.165 353.331 177.582 353.331 162.999Z" fill="black"/>
<path d="M2380.4 369.669C2368.32 325.92 2384.57 287.17 2328.74 287.17C2276.65 287.17 2227.07 340.086 2219.57 435.919C2211.24 542.585 2266.24 641.334 2376.24 641.334C2437.07 641.334 2477.07 618.834 2514.15 593.418C2529.15 583.418 2539.15 578.418 2546.65 583.001C2559.57 590.918 2549.98 611.334 2545.82 620.084C2545.4 620.917 2536.65 639.251 2525.4 657.167C2510.82 680.917 2494.15 701.75 2476.23 719.25C2429.57 764.666 2370.82 787.999 2302.49 787.999C2153.32 787.999 2045.4 679.667 2045.4 530.918C2045.4 376.753 2159.15 255.92 2324.99 256.337C2367.07 256.337 2407.07 263.004 2434.15 272.587C2472.48 285.92 2523.32 312.17 2523.32 361.336C2523.32 391.336 2506.65 428.836 2457.9 429.252C2417.07 429.669 2389.57 403.003 2380.4 369.669Z" fill="black"/>
</svg>
