<svg width="350" height="350" fill="none" xmlns="http://www.w3.org/2000/svg"><path d="M84.329 14.448C53.197-16.427-.041 5.462 0 49.12l.143 154.184c.04 43.537 53.064 65.384 84.212 34.698l77.921-76.765c19.395-19.107 19.447-50.201.116-69.371l-78.063-77.42z" fill="#007BFF"/><path d="M349.73 158.641c-.121-57.091-69.826-85.508-110.414-45.011L111.979 240.681c-40.474 40.383-11.665 109.137 45.754 109.193l127.608.126c35.753.035 64.734-28.732 64.659-64.182l-.27-127.177z" fill="#F51B5E"/><path d="M253.474 49.19c0 22.888-18.713 41.442-41.797 41.442-23.083 0-41.796-18.555-41.796-41.442 0-22.888 18.713-41.443 41.796-41.443 23.084 0 41.797 18.555 41.797 41.443z" fill="#3D3D3D"/></svg>