<svg width="350" height="350" viewBox="0 0 350 350" fill="none" xmlns="http://www.w3.org/2000/svg">
<path d="M84.3288 14.4476C53.1969 -16.4271 -0.040434 5.46241 2.30452e-05 49.1209L0.142865 203.305C0.183204 246.842 53.2074 268.689 84.3554 238.003L162.276 161.238C181.671 142.131 181.723 111.037 162.392 91.8665L84.3288 14.4476Z" fill="#007BFF"/>
<path d="M349.73 158.641C349.609 101.55 279.904 73.1334 239.316 113.63L111.979 240.681C71.5046 281.064 100.314 349.818 157.733 349.874L285.341 350C321.094 350.035 350.075 321.268 350 285.818L349.73 158.641Z" fill="#F51B5E"/>
<path d="M253.474 49.1896C253.474 72.0775 234.761 90.6319 211.677 90.6319C188.594 90.6319 169.881 72.0775 169.881 49.1896C169.881 26.3016 188.594 7.7472 211.677 7.7472C234.761 7.7472 253.474 26.3016 253.474 49.1896Z" fill="#3D3D3D"/>
</svg>
