<svg width="1811" height="352" fill="none" xmlns="http://www.w3.org/2000/svg"><path d="M87.329 15.448C56.197-15.427 2.959 6.462 3 50.12l.143 154.184c.04 43.537 53.064 65.384 84.212 34.698l77.921-76.765c19.395-19.107 19.447-50.201.116-69.371l-78.063-77.42z" fill="#007BFF"/><path d="M352.73 159.641c-.121-57.091-69.826-85.508-110.414-45.011L114.979 241.681c-40.474 40.383-11.665 109.137 45.754 109.193l127.608.126c35.753.035 64.734-28.732 64.659-64.182l-.27-127.177z" fill="#F51B5E"/><path d="M256.474 50.19c0 22.888-18.713 41.442-41.797 41.442-23.083 0-41.796-18.555-41.796-41.442 0-22.888 18.713-41.443 41.796-41.443 23.084 0 41.797 18.555 41.797 41.443z" fill="#3D3D3D"/><path d="M449 253.072c-10.411 0-19.712-2.389-27.904-7.168-8.192-4.949-14.677-12.032-19.456-21.248-4.608-9.216-6.912-20.139-6.912-32.768 0-12.629 2.56-23.381 7.68-32.256 5.12-8.875 12.117-15.616 20.992-20.224 8.875-4.608 18.944-6.912 30.208-6.912 7.168 0 13.995 1.109 20.48 3.328 6.656 2.219 12.203 5.632 16.64 10.24v11.264V48.016h35.584V250h-35.84v-21.76l2.816 7.68c-5.803 4.779-12.288 8.875-19.456 12.288-7.168 3.243-15.445 4.864-24.832 4.864zm11.776-30.208c4.779 0 8.96-.597 12.544-1.792 3.755-1.365 6.997-3.243 9.728-5.632 2.901-2.56 5.376-5.717 7.424-9.472v-27.392c-1.365-3.755-3.499-6.912-6.4-9.472-2.731-2.731-6.144-4.779-10.24-6.144-3.925-1.536-8.277-2.304-13.056-2.304-5.291 0-10.24 1.365-14.848 4.096-4.437 2.56-8.021 6.144-10.752 10.752-2.731 4.608-4.096 9.899-4.096 15.872 0 5.973 1.365 11.349 4.096 16.128s6.315 8.533 10.752 11.264c4.608 2.731 9.557 4.096 14.848 4.096zm149.51 30.208c-10.411 0-19.883-2.048-28.416-6.144-8.363-4.267-15.019-10.752-19.968-19.456-4.949-8.704-7.424-19.797-7.424-33.28 0-12.629 2.56-23.552 7.68-32.768 5.12-9.216 11.861-16.299 20.224-21.248 8.363-5.12 17.237-7.68 26.624-7.68 11.093 0 19.456 1.877 25.088 5.632 5.803 3.584 10.581 7.595 14.336 12.032l-1.536 4.352 3.328-16.384h33.28V250h-35.84v-24.32l2.816 7.68c-.341 0-1.365 1.024-3.072 3.072-1.707 1.877-4.267 4.181-7.68 6.912-3.243 2.56-7.339 4.779-12.288 6.656-4.779 2.048-10.496 3.072-17.152 3.072zm10.24-29.184c4.267 0 8.107-.597 11.52-1.792 3.413-1.365 6.4-3.243 8.96-5.632 2.56-2.56 4.779-5.717 6.656-9.472V179.6c-1.365-3.755-3.413-6.912-6.144-9.472-2.731-2.731-5.973-4.779-9.728-6.144-3.755-1.536-7.936-2.304-12.544-2.304-5.12 0-9.899 1.365-14.336 4.096-4.267 2.56-7.68 6.144-10.24 10.752-2.56 4.608-3.84 9.899-3.84 15.872 0 5.973 1.365 11.349 4.096 16.128s6.315 8.533 10.752 11.264c4.608 2.731 9.557 4.096 14.848 4.096zm132.418-85.76l2.816 19.968-.512-1.792c3.925-6.997 9.472-12.629 16.64-16.896 7.168-4.437 15.957-6.656 26.368-6.656 10.581 0 19.371 3.157 26.368 9.472 7.168 6.144 10.837 14.165 11.008 24.064V250h-35.84v-70.4c-.171-4.949-1.536-8.875-4.096-11.776-2.389-3.072-6.485-4.608-12.288-4.608-5.461 0-10.24 1.792-14.336 5.376-4.096 3.584-7.253 8.448-9.472 14.592-2.219 6.144-3.328 13.227-3.328 21.248V250h-35.84V138.128h32.512zm119.488 0h35.84V250h-35.84V138.128zm-.768-39.68c0-5.29 2.048-9.643 6.144-13.056 4.267-3.413 8.789-5.12 13.568-5.12s9.131 1.707 13.056 5.12c4.096 3.413 6.144 7.765 6.144 13.056 0 5.291-2.048 9.643-6.144 13.056-3.925 3.243-8.277 4.864-13.056 4.864s-9.301-1.621-13.568-4.864c-4.096-3.413-6.144-7.765-6.144-13.056zm128.556 154.624c-13.651 0-25.257-2.56-34.814-7.68-9.387-5.12-16.555-12.203-21.504-21.248-4.949-9.045-7.424-19.456-7.424-31.232 0-11.264 2.901-21.419 8.704-30.464 5.803-9.045 13.568-16.213 23.296-21.504 9.728-5.461 20.565-8.192 32.512-8.192 16.04 0 29.18 4.693 39.42 14.08 10.41 9.216 17.16 22.613 20.23 40.192l-87.042 27.648-7.936-19.456 62.978-21.248-7.43 3.328c-1.36-4.437-3.84-8.277-7.42-11.52-3.41-3.413-8.62-5.12-15.616-5.12-5.291 0-9.984 1.28-14.08 3.84-3.925 2.389-6.997 5.888-9.216 10.496-2.048 4.437-3.072 9.728-3.072 15.872 0 6.997 1.28 12.885 3.84 17.664 2.56 4.608 6.059 8.107 10.496 10.496 4.437 2.389 9.387 3.584 14.848 3.584 3.93 0 7.68-.683 11.26-2.048 3.76-1.365 7.43-3.157 11.01-5.376l15.87 26.624c-5.97 3.413-12.45 6.144-19.45 8.192-6.83 2.048-13.31 3.072-19.46 3.072zm86.46-205.056h35.84V250h-35.84V48.016zm163.43 256l-20.74-22.272c5.12-3.755 9.05-8.363 11.78-13.824 2.9-5.461 4.35-12.117 4.35-19.968V138.128h35.84V250c0 13.312-2.39 24.32-7.17 33.024-4.78 8.875-12.8 15.872-24.06 20.992zm-5.89-205.568c0-5.29 2.05-9.643 6.14-13.056 4.27-3.413 8.79-5.12 13.57-5.12 4.78 0 9.13 1.707 13.06 5.12 4.09 3.413 6.14 7.765 6.14 13.056 0 5.291-2.05 9.643-6.14 13.056-3.93 3.243-8.28 4.864-13.06 4.864-4.78 0-9.3-1.621-13.57-4.864-4.09-3.413-6.14-7.765-6.14-13.056zm65.26 94.208c0-11.435 2.64-21.675 7.93-30.72 5.47-9.045 13.06-16.128 22.79-21.248 9.73-5.291 20.9-7.936 33.53-7.936 12.8 0 23.9 2.645 33.28 7.936 9.39 5.12 16.56 12.203 21.51 21.248 5.12 9.045 7.68 19.285 7.68 30.72 0 11.435-2.56 21.76-7.68 30.976-4.95 9.045-12.12 16.213-21.51 21.504-9.38 5.291-20.65 7.936-33.79 7.936-12.29 0-23.29-2.389-33.02-7.168-9.56-4.779-17.07-11.691-22.53-20.736-5.46-9.045-8.19-19.883-8.19-32.512zm36.09.256c0 5.803 1.2 11.093 3.59 15.872 2.39 4.608 5.63 8.277 9.73 11.008 4.09 2.731 8.7 4.096 13.82 4.096 5.63 0 10.5-1.365 14.59-4.096 4.1-2.731 7.26-6.4 9.47-11.008 2.22-4.779 3.33-10.069 3.33-15.872 0-5.973-1.11-11.264-3.33-15.872-2.21-4.608-5.37-8.277-9.47-11.008-4.09-2.731-8.96-4.096-14.59-4.096-5.12 0-9.73 1.365-13.82 4.096-4.1 2.731-7.34 6.4-9.73 11.008-2.39 4.608-3.59 9.899-3.59 15.872zM1475.18 250v-80.64h-18.94v-31.744h18.94V98.704c0-14.677 4.19-26.624 12.55-35.84 8.53-9.387 20.82-14.08 36.86-14.08 4.78 0 10.07.768 15.87 2.304 5.98 1.365 11.18 3.67 15.62 6.912l-15.1 25.856c-1.71-2.219-3.76-3.67-6.15-4.352-2.22-.853-4.35-1.28-6.4-1.28-5.12 0-9.3 1.707-12.54 5.12-3.24 3.413-4.87 8.875-4.87 16.384v37.888h33.8v31.744h-33.8V250h-35.84zm82.69 0v-80.64h-18.94v-31.744h18.94V98.704c0-14.677 4.18-26.624 12.55-35.84 8.53-9.387 20.82-14.08 36.86-14.08 4.78 0 10.07.768 15.87 2.304 5.98 1.365 11.18 3.67 15.62 6.912l-15.11 25.856c-1.7-2.219-3.75-3.67-6.14-4.352-2.22-.853-4.35-1.28-6.4-1.28-5.12 0-9.3 1.707-12.54 5.12-3.25 3.413-4.87 8.875-4.87 16.384v37.888h33.79v31.744h-33.79V250h-35.84zm153.1 3.072c-13.65 0-25.26-2.56-34.81-7.68-9.39-5.12-16.56-12.203-21.51-21.248-4.95-9.045-7.42-19.456-7.42-31.232 0-11.264 2.9-21.419 8.7-30.464 5.8-9.045 13.57-16.213 23.3-21.504 9.73-5.461 20.56-8.192 32.51-8.192 16.04 0 29.18 4.693 39.42 14.08 10.41 9.216 17.16 22.613 20.23 40.192l-87.04 27.648-7.94-19.456 62.98-21.248-7.43 3.328c-1.36-4.437-3.84-8.277-7.42-11.52-3.41-3.413-8.62-5.12-15.62-5.12-5.29 0-9.98 1.28-14.08 3.84-3.92 2.389-6.99 5.888-9.21 10.496-2.05 4.437-3.07 9.728-3.07 15.872 0 6.997 1.28 12.885 3.84 17.664 2.56 4.608 6.05 8.107 10.49 10.496 4.44 2.389 9.39 3.584 14.85 3.584 3.93 0 7.68-.683 11.26-2.048 3.76-1.365 7.43-3.157 11.01-5.376l15.87 26.624c-5.97 3.413-12.45 6.144-19.45 8.192-6.83 2.048-13.31 3.072-19.46 3.072z" fill="#2A2A2A"/></svg>