<svg width="380" height="380" viewBox="0 0 380 380" fill="none" xmlns="http://www.w3.org/2000/svg">
<g clip-path="url(#clip0_2243_12449)">
<path d="M99.3288 34.4476C68.1969 3.57286 14.9596 25.4624 15 69.1209L15.1429 223.305C15.1832 266.842 68.2074 288.689 99.3554 258.003L177.276 181.238C196.671 162.131 196.723 131.037 177.392 111.866L99.3288 34.4476Z" fill="#007BFF"/>
<path d="M364.73 178.641C364.609 121.55 294.904 93.1334 254.316 133.63L126.979 260.681C86.5046 301.064 115.314 369.818 172.733 369.874L300.341 370C336.094 370.035 365.075 341.268 365 305.818L364.73 178.641Z" fill="#F51B5E"/>
<path d="M268.474 69.1896C268.474 92.0775 249.761 110.632 226.677 110.632C203.594 110.632 184.881 92.0775 184.881 69.1896C184.881 46.3016 203.594 27.7472 226.677 27.7472C249.761 27.7472 268.474 46.3016 268.474 69.1896Z" fill="#3D3D3D"/>
</g>
<defs>
<clipPath id="clip0_2243_12449">
<rect width="380" height="380" fill="white"/>
</clipPath>
</defs>
</svg>
