<svg width="1852" height="400" viewBox="0 0 1852 400" fill="none" xmlns="http://www.w3.org/2000/svg">
    <path
        d="M107.329 39.4476C76.1969 8.57286 22.9596 30.4624 23 74.1209L23.1429 228.305C23.1832 271.842 76.2074 293.689 107.355 263.003L185.276 186.238C204.671 167.131 204.723 136.037 185.392 116.866L107.329 39.4476Z"
        fill="#007BFF" />
    <path
        d="M372.73 183.641C372.609 126.55 302.904 98.1334 262.316 138.63L134.979 265.681C94.5046 306.064 123.314 374.818 180.733 374.874L308.341 375C344.094 375.035 373.075 346.268 373 310.818L372.73 183.641Z"
        fill="#F51B5E" />
    <path
        d="M276.474 74.1896C276.474 97.0775 257.761 115.632 234.677 115.632C211.594 115.632 192.881 97.0775 192.881 74.1896C192.881 51.3016 211.594 32.7472 234.677 32.7472C257.761 32.7472 276.474 51.3016 276.474 74.1896Z"
        fill="#3D3D3D" />
    <path
        d="M421 237.732C421 223.678 423.762 211.214 429.285 200.34C434.976 189.465 442.675 181.1 452.383 175.244C462.091 169.389 472.887 166.461 484.77 166.461C493.809 166.461 502.429 168.469 510.63 172.484C518.831 176.332 525.359 181.518 530.213 188.043V122.042H565.864V307.748H530.213V287.17C525.861 294.029 519.752 299.55 511.885 303.733C504.019 307.915 494.897 310.007 484.519 310.007C472.803 310.007 462.091 306.995 452.383 300.972C442.675 294.949 434.976 286.501 429.285 275.626C423.762 264.584 421 251.953 421 237.732ZM530.464 238.234C530.464 229.701 528.79 222.424 525.443 216.401C522.095 210.211 517.576 205.526 511.885 202.347C506.194 199.001 500.085 197.328 493.558 197.328C487.03 197.328 481.004 198.918 475.481 202.096C469.958 205.275 465.438 209.96 461.923 216.15C458.576 222.173 456.902 229.367 456.902 237.732C456.902 246.097 458.576 253.458 461.923 259.816C465.438 266.006 469.958 270.774 475.481 274.12C481.172 277.466 487.197 279.139 493.558 279.139C500.085 279.139 506.194 277.55 511.885 274.371C517.576 271.025 522.095 266.341 525.443 260.318C528.79 254.128 530.464 246.766 530.464 238.234Z"
        fill="black" />
    <path
        d="M591.155 237.732C591.155 223.678 593.917 211.214 599.44 200.34C605.131 189.465 612.746 181.1 622.287 175.244C631.995 169.389 642.79 166.461 654.674 166.461C665.051 166.461 674.09 168.552 681.789 172.735C689.656 176.917 695.932 182.187 700.619 188.545V168.719H736.019V307.748H700.619V287.421C696.1 293.946 689.823 299.383 681.789 303.733C673.922 307.915 664.8 310.007 654.423 310.007C642.707 310.007 631.995 306.995 622.287 300.972C612.746 294.949 605.131 286.501 599.44 275.626C593.917 264.584 591.155 251.953 591.155 237.732ZM700.619 238.234C700.619 229.701 698.945 222.424 695.598 216.401C692.25 210.211 687.731 205.526 682.04 202.347C676.349 199.001 670.24 197.328 663.712 197.328C657.185 197.328 651.159 198.918 645.636 202.096C640.112 205.275 635.593 209.96 632.078 216.15C628.731 222.173 627.057 229.367 627.057 237.732C627.057 246.097 628.731 253.458 632.078 259.816C635.593 266.006 640.112 270.774 645.636 274.12C651.327 277.466 657.352 279.139 663.712 279.139C670.24 279.139 676.349 277.55 682.04 274.371C687.731 271.025 692.25 266.341 695.598 260.318C698.945 254.128 700.619 246.766 700.619 238.234Z"
        fill="black" />
    <path
        d="M847.425 166.712C863.995 166.712 877.385 171.982 887.595 182.522C897.805 192.895 902.91 207.45 902.91 226.188V307.748H867.761V230.956C867.761 219.914 864.999 211.465 859.476 205.61C853.952 199.587 846.421 196.575 836.88 196.575C827.172 196.575 819.473 199.587 813.782 205.61C808.259 211.465 805.497 219.914 805.497 230.956V307.748H770.348V168.719H805.497V186.035C810.184 180.012 816.125 175.328 823.323 171.982C830.687 168.469 838.721 166.712 847.425 166.712Z"
        fill="black" />
    <path
        d="M954.16 152.156C947.968 152.156 942.779 150.233 938.594 146.385C934.577 142.369 932.569 137.434 932.569 131.578C932.569 125.723 934.577 120.871 938.594 117.023C942.779 113.008 947.968 111 954.16 111C960.353 111 965.458 113.008 969.475 117.023C973.66 120.871 975.752 125.723 975.752 131.578C975.752 137.434 973.66 142.369 969.475 146.385C965.458 150.233 960.353 152.156 954.16 152.156ZM971.484 168.719V307.748H936.335V168.719H971.484Z"
        fill="black" />
    <path
        d="M1135.51 235.222C1135.51 240.241 1135.17 244.759 1134.5 248.774H1032.82C1033.66 258.812 1037.18 266.675 1043.37 272.364C1049.56 278.052 1057.18 280.896 1066.22 280.896C1079.27 280.896 1088.56 275.291 1094.08 264.082H1131.99C1127.98 277.466 1120.28 288.508 1108.9 297.208C1097.51 305.74 1083.54 310.007 1066.97 310.007C1053.58 310.007 1041.53 307.079 1030.82 301.223C1020.27 295.2 1011.99 286.752 1005.96 275.877C1000.1 265.002 997.173 252.455 997.173 238.234C997.173 223.846 1000.1 211.214 1005.96 200.34C1011.82 189.465 1020.02 181.1 1030.56 175.244C1041.11 169.389 1053.24 166.461 1066.97 166.461C1080.19 166.461 1091.99 169.305 1102.37 174.993C1112.91 180.682 1121.03 188.796 1126.72 199.336C1132.58 209.709 1135.51 221.671 1135.51 235.222ZM1099.1 225.184C1098.94 216.15 1095.67 208.956 1089.31 203.602C1082.95 198.081 1075.17 195.321 1065.96 195.321C1057.26 195.321 1049.9 197.997 1043.87 203.351C1038.01 208.538 1034.41 215.815 1033.08 225.184H1099.1Z"
        fill="black" />
    <path d="M1196.31 122.042V307.748H1161.16V122.042H1196.31Z" fill="black" />
    <path
        d="M1308.69 152.156C1302.33 152.156 1297.06 150.233 1292.87 146.385C1288.86 142.369 1286.85 137.434 1286.85 131.578C1286.85 125.723 1288.86 120.871 1292.87 117.023C1297.06 113.008 1302.33 111 1308.69 111C1314.88 111 1319.99 113.008 1324.01 117.023C1328.02 120.871 1330.03 125.723 1330.03 131.578C1330.03 137.434 1328.02 142.369 1324.01 146.385C1319.99 150.233 1314.88 152.156 1308.69 152.156ZM1326.01 330.585C1326.01 345.977 1322.16 357.019 1314.47 363.711C1306.93 370.57 1296.05 374 1281.83 374H1266.26V344.136H1276.3C1281.66 344.136 1285.43 343.049 1287.6 340.874C1289.78 338.866 1290.87 335.52 1290.87 330.836V168.719H1326.01V330.585Z"
        fill="black" />
    <path
        d="M1422.5 310.007C1409.11 310.007 1397.06 307.079 1386.35 301.223C1375.64 295.2 1367.19 286.752 1360.99 275.877C1354.97 265.002 1351.95 252.455 1351.95 238.234C1351.95 224.013 1355.05 211.465 1361.24 200.591C1367.6 189.716 1376.22 181.351 1387.1 175.495C1397.98 169.472 1410.12 166.461 1423.51 166.461C1436.9 166.461 1449.03 169.472 1459.91 175.495C1470.79 181.351 1479.33 189.716 1485.52 200.591C1491.88 211.465 1495.06 224.013 1495.06 238.234C1495.06 252.455 1491.8 265.002 1485.27 275.877C1478.91 286.752 1470.21 295.2 1459.16 301.223C1448.28 307.079 1436.06 310.007 1422.5 310.007ZM1422.5 279.39C1428.86 279.39 1434.81 277.885 1440.33 274.873C1446.02 271.694 1450.54 267.01 1453.89 260.82C1457.23 254.629 1458.91 247.101 1458.91 238.234C1458.91 225.017 1455.39 214.895 1448.36 207.868C1441.5 200.674 1433.05 197.077 1423.01 197.077C1412.96 197.077 1404.51 200.674 1397.65 207.868C1390.95 214.895 1387.61 225.017 1387.61 238.234C1387.61 251.451 1390.87 261.656 1397.4 268.85C1404.09 275.877 1412.46 279.39 1422.5 279.39Z"
        fill="black" />
    <path
        d="M1584.61 197.579H1560.26V307.748H1524.61V197.579H1508.79V168.719H1524.61V161.693C1524.61 144.628 1529.46 132.08 1539.17 124.05C1548.88 116.019 1563.52 112.255 1583.11 112.757V142.369C1574.57 142.202 1568.63 143.624 1565.28 146.635C1561.93 149.647 1560.26 155.084 1560.26 162.948V168.719H1584.61V197.579Z"
        fill="black" />
    <path
        d="M1671.16 197.579H1646.81V307.748H1611.16V197.579H1595.34V168.719H1611.16V161.693C1611.16 144.628 1616.01 132.08 1625.72 124.05C1635.43 116.019 1650.07 112.255 1669.66 112.757V142.369C1661.12 142.202 1655.18 143.624 1651.83 146.635C1648.48 149.647 1646.81 155.084 1646.81 162.948V168.719H1671.16V197.579Z"
        fill="black" />
    <path
        d="M1823.24 235.222C1823.24 240.241 1822.9 244.759 1822.23 248.774H1720.55C1721.39 258.812 1724.91 266.675 1731.1 272.364C1737.29 278.052 1744.91 280.896 1753.95 280.896C1767 280.896 1776.29 275.291 1781.81 264.082H1819.72C1815.71 277.466 1808.01 288.508 1796.63 297.208C1785.24 305.74 1771.27 310.007 1754.7 310.007C1741.31 310.007 1729.26 307.079 1718.55 301.223C1708 295.2 1699.72 286.752 1693.69 275.877C1687.83 265.002 1684.9 252.455 1684.9 238.234C1684.9 223.846 1687.83 211.214 1693.69 200.34C1699.55 189.465 1707.75 181.1 1718.29 175.244C1728.84 169.389 1740.97 166.461 1754.7 166.461C1767.92 166.461 1779.72 169.305 1790.1 174.993C1800.64 180.682 1808.76 188.796 1814.45 199.336C1820.31 209.709 1823.24 221.671 1823.24 235.222ZM1786.83 225.184C1786.67 216.15 1783.4 208.956 1777.04 203.602C1770.68 198.081 1762.9 195.321 1753.69 195.321C1744.99 195.321 1737.63 197.997 1731.6 203.351C1725.74 208.538 1722.14 215.815 1720.8 225.184H1786.83Z"
        fill="black" />
</svg>